<?xml version="1.0" encoding="utf-8" standalone="no"?>
<!DOCTYPE svg PUBLIC "-//W3C//DTD SVG 1.1//EN"
  "http://www.w3.org/Graphics/SVG/1.1/DTD/svg11.dtd">
<svg xmlns:xlink="http://www.w3.org/1999/xlink" width="576pt" height="504pt" viewBox="0 0 576 504" xmlns="http://www.w3.org/2000/svg" version="1.1">
 <metadata>
  <rdf:RDF xmlns:dc="http://purl.org/dc/elements/1.1/" xmlns:cc="http://creativecommons.org/ns#" xmlns:rdf="http://www.w3.org/1999/02/22-rdf-syntax-ns#">
   <cc:Work>
    <dc:type rdf:resource="http://purl.org/dc/dcmitype/StillImage"/>
    <dc:date>2025-09-03T15:35:31.607828</dc:date>
    <dc:format>image/svg+xml</dc:format>
    <dc:creator>
     <cc:Agent>
      <dc:title>Matplotlib v3.9.2, https://matplotlib.org/</dc:title>
     </cc:Agent>
    </dc:creator>
   </cc:Work>
  </rdf:RDF>
 </metadata>
 <defs>
  <style type="text/css">*{stroke-linejoin: round; stroke-linecap: butt}</style>
 </defs>
 <g id="figure_1">
  <g id="patch_1">
   <path d="M 0 504 
L 576 504 
L 576 0 
L 0 0 
z
" style="fill: #ffffff"/>
  </g>
  <g id="axes_1">
   <g id="patch_2">
    <path d="M 63.686 167.617333 
L 562.281818 167.617333 
L 562.281818 41.856 
L 63.686 41.856 
z
" style="fill: #ffffff"/>
   </g>
   <g id="matplotlib.axis_1">
    <g id="xtick_1">
     <g id="line2d_1">
      <defs>
       <path id="m18ca2e86dd" d="M 0 0 
L 0 3.5 
" style="stroke: #000000; stroke-width: 0.8"/>
      </defs>
      <g>
       <use xlink:href="#m18ca2e86dd" x="86.349446" y="167.617333" style="stroke: #000000; stroke-width: 0.8"/>
      </g>
     </g>
    </g>
    <g id="xtick_2">
     <g id="line2d_2">
      <g>
       <use xlink:href="#m18ca2e86dd" x="180.780472" y="167.617333" style="stroke: #000000; stroke-width: 0.8"/>
      </g>
     </g>
    </g>
    <g id="xtick_3">
     <g id="line2d_3">
      <g>
       <use xlink:href="#m18ca2e86dd" x="275.211499" y="167.617333" style="stroke: #000000; stroke-width: 0.8"/>
      </g>
     </g>
    </g>
    <g id="xtick_4">
     <g id="line2d_4">
      <g>
       <use xlink:href="#m18ca2e86dd" x="369.642525" y="167.617333" style="stroke: #000000; stroke-width: 0.8"/>
      </g>
     </g>
    </g>
    <g id="xtick_5">
     <g id="line2d_5">
      <g>
       <use xlink:href="#m18ca2e86dd" x="464.073551" y="167.617333" style="stroke: #000000; stroke-width: 0.8"/>
      </g>
     </g>
    </g>
    <g id="xtick_6">
     <g id="line2d_6">
      <g>
       <use xlink:href="#m18ca2e86dd" x="558.504577" y="167.617333" style="stroke: #000000; stroke-width: 0.8"/>
      </g>
     </g>
    </g>
   </g>
   <g id="matplotlib.axis_2">
    <g id="ytick_1">
     <g id="line2d_7">
      <defs>
       <path id="m569693dc71" d="M 0 0 
L -3.5 0 
" style="stroke: #000000; stroke-width: 0.8"/>
      </defs>
      <g>
       <use xlink:href="#m569693dc71" x="63.686" y="146.826426" style="stroke: #000000; stroke-width: 0.8"/>
      </g>
     </g>
     <g id="text_1">
      <!-- −1 -->
      <g transform="translate(41.943813 150.625645) scale(0.1 -0.1)">
       <defs>
        <path id="DejaVuSans-2212" d="M 678 2272 
L 4684 2272 
L 4684 1741 
L 678 1741 
L 678 2272 
z
" transform="scale(0.015625)"/>
        <path id="DejaVuSans-31" d="M 794 531 
L 1825 531 
L 1825 4091 
L 703 3866 
L 703 4441 
L 1819 4666 
L 2450 4666 
L 2450 531 
L 3481 531 
L 3481 0 
L 794 0 
L 794 531 
z
" transform="scale(0.015625)"/>
       </defs>
       <use xlink:href="#DejaVuSans-2212"/>
       <use xlink:href="#DejaVuSans-31" x="83.789062"/>
      </g>
     </g>
    </g>
    <g id="ytick_2">
     <g id="line2d_8">
      <g>
       <use xlink:href="#m569693dc71" x="63.686" y="112.327647" style="stroke: #000000; stroke-width: 0.8"/>
      </g>
     </g>
     <g id="text_2">
      <!-- 0 -->
      <g transform="translate(50.3235 116.126866) scale(0.1 -0.1)">
       <defs>
        <path id="DejaVuSans-30" d="M 2034 4250 
Q 1547 4250 1301 3770 
Q 1056 3291 1056 2328 
Q 1056 1369 1301 889 
Q 1547 409 2034 409 
Q 2525 409 2770 889 
Q 3016 1369 3016 2328 
Q 3016 3291 2770 3770 
Q 2525 4250 2034 4250 
z
M 2034 4750 
Q 2819 4750 3233 4129 
Q 3647 3509 3647 2328 
Q 3647 1150 3233 529 
Q 2819 -91 2034 -91 
Q 1250 -91 836 529 
Q 422 1150 422 2328 
Q 422 3509 836 4129 
Q 1250 4750 2034 4750 
z
" transform="scale(0.015625)"/>
       </defs>
       <use xlink:href="#DejaVuSans-30"/>
      </g>
     </g>
    </g>
    <g id="ytick_3">
     <g id="line2d_9">
      <g>
       <use xlink:href="#m569693dc71" x="63.686" y="77.828868" style="stroke: #000000; stroke-width: 0.8"/>
      </g>
     </g>
     <g id="text_3">
      <!-- 1 -->
      <g transform="translate(50.3235 81.628087) scale(0.1 -0.1)">
       <use xlink:href="#DejaVuSans-31"/>
      </g>
     </g>
    </g>
    <g id="ytick_4">
     <g id="line2d_10">
      <g>
       <use xlink:href="#m569693dc71" x="63.686" y="43.330089" style="stroke: #000000; stroke-width: 0.8"/>
      </g>
     </g>
     <g id="text_4">
      <!-- 2 -->
      <g transform="translate(50.3235 47.129308) scale(0.1 -0.1)">
       <defs>
        <path id="DejaVuSans-32" d="M 1228 531 
L 3431 531 
L 3431 0 
L 469 0 
L 469 531 
Q 828 903 1448 1529 
Q 2069 2156 2228 2338 
Q 2531 2678 2651 2914 
Q 2772 3150 2772 3378 
Q 2772 3750 2511 3984 
Q 2250 4219 1831 4219 
Q 1534 4219 1204 4116 
Q 875 4013 500 3803 
L 500 4441 
Q 881 4594 1212 4672 
Q 1544 4750 1819 4750 
Q 2544 4750 2975 4387 
Q 3406 4025 3406 3419 
Q 3406 3131 3298 2873 
Q 3191 2616 2906 2266 
Q 2828 2175 2409 1742 
Q 1991 1309 1228 531 
z
" transform="scale(0.015625)"/>
       </defs>
       <use xlink:href="#DejaVuSans-32"/>
      </g>
     </g>
    </g>
    <g id="text_5">
     <!-- Input Current $I_{in}$ -->
     <g transform="translate(24.646 144.686667) rotate(-90) scale(0.1 -0.1)">
      <defs>
       <path id="DejaVuSans-49" d="M 628 4666 
L 1259 4666 
L 1259 0 
L 628 0 
L 628 4666 
z
" transform="scale(0.015625)"/>
       <path id="DejaVuSans-6e" d="M 3513 2113 
L 3513 0 
L 2938 0 
L 2938 2094 
Q 2938 2591 2744 2837 
Q 2550 3084 2163 3084 
Q 1697 3084 1428 2787 
Q 1159 2491 1159 1978 
L 1159 0 
L 581 0 
L 581 3500 
L 1159 3500 
L 1159 2956 
Q 1366 3272 1645 3428 
Q 1925 3584 2291 3584 
Q 2894 3584 3203 3211 
Q 3513 2838 3513 2113 
z
" transform="scale(0.015625)"/>
       <path id="DejaVuSans-70" d="M 1159 525 
L 1159 -1331 
L 581 -1331 
L 581 3500 
L 1159 3500 
L 1159 2969 
Q 1341 3281 1617 3432 
Q 1894 3584 2278 3584 
Q 2916 3584 3314 3078 
Q 3713 2572 3713 1747 
Q 3713 922 3314 415 
Q 2916 -91 2278 -91 
Q 1894 -91 1617 61 
Q 1341 213 1159 525 
z
M 3116 1747 
Q 3116 2381 2855 2742 
Q 2594 3103 2138 3103 
Q 1681 3103 1420 2742 
Q 1159 2381 1159 1747 
Q 1159 1113 1420 752 
Q 1681 391 2138 391 
Q 2594 391 2855 752 
Q 3116 1113 3116 1747 
z
" transform="scale(0.015625)"/>
       <path id="DejaVuSans-75" d="M 544 1381 
L 544 3500 
L 1119 3500 
L 1119 1403 
Q 1119 906 1312 657 
Q 1506 409 1894 409 
Q 2359 409 2629 706 
Q 2900 1003 2900 1516 
L 2900 3500 
L 3475 3500 
L 3475 0 
L 2900 0 
L 2900 538 
Q 2691 219 2414 64 
Q 2138 -91 1772 -91 
Q 1169 -91 856 284 
Q 544 659 544 1381 
z
M 1991 3584 
L 1991 3584 
z
" transform="scale(0.015625)"/>
       <path id="DejaVuSans-74" d="M 1172 4494 
L 1172 3500 
L 2356 3500 
L 2356 3053 
L 1172 3053 
L 1172 1153 
Q 1172 725 1289 603 
Q 1406 481 1766 481 
L 2356 481 
L 2356 0 
L 1766 0 
Q 1100 0 847 248 
Q 594 497 594 1153 
L 594 3053 
L 172 3053 
L 172 3500 
L 594 3500 
L 594 4494 
L 1172 4494 
z
" transform="scale(0.015625)"/>
       <path id="DejaVuSans-20" transform="scale(0.015625)"/>
       <path id="DejaVuSans-43" d="M 4122 4306 
L 4122 3641 
Q 3803 3938 3442 4084 
Q 3081 4231 2675 4231 
Q 1875 4231 1450 3742 
Q 1025 3253 1025 2328 
Q 1025 1406 1450 917 
Q 1875 428 2675 428 
Q 3081 428 3442 575 
Q 3803 722 4122 1019 
L 4122 359 
Q 3791 134 3420 21 
Q 3050 -91 2638 -91 
Q 1578 -91 968 557 
Q 359 1206 359 2328 
Q 359 3453 968 4101 
Q 1578 4750 2638 4750 
Q 3056 4750 3426 4639 
Q 3797 4528 4122 4306 
z
" transform="scale(0.015625)"/>
       <path id="DejaVuSans-72" d="M 2631 2963 
Q 2534 3019 2420 3045 
Q 2306 3072 2169 3072 
Q 1681 3072 1420 2755 
Q 1159 2438 1159 1844 
L 1159 0 
L 581 0 
L 581 3500 
L 1159 3500 
L 1159 2956 
Q 1341 3275 1631 3429 
Q 1922 3584 2338 3584 
Q 2397 3584 2469 3576 
Q 2541 3569 2628 3553 
L 2631 2963 
z
" transform="scale(0.015625)"/>
       <path id="DejaVuSans-65" d="M 3597 1894 
L 3597 1613 
L 953 1613 
Q 991 1019 1311 708 
Q 1631 397 2203 397 
Q 2534 397 2845 478 
Q 3156 559 3463 722 
L 3463 178 
Q 3153 47 2828 -22 
Q 2503 -91 2169 -91 
Q 1331 -91 842 396 
Q 353 884 353 1716 
Q 353 2575 817 3079 
Q 1281 3584 2069 3584 
Q 2775 3584 3186 3129 
Q 3597 2675 3597 1894 
z
M 3022 2063 
Q 3016 2534 2758 2815 
Q 2500 3097 2075 3097 
Q 1594 3097 1305 2825 
Q 1016 2553 972 2059 
L 3022 2063 
z
" transform="scale(0.015625)"/>
       <path id="DejaVuSans-Oblique-49" d="M 1081 4666 
L 1716 4666 
L 806 0 
L 172 0 
L 1081 4666 
z
" transform="scale(0.015625)"/>
       <path id="DejaVuSans-Oblique-69" d="M 1172 4863 
L 1747 4863 
L 1606 4134 
L 1031 4134 
L 1172 4863 
z
M 909 3500 
L 1484 3500 
L 800 0 
L 225 0 
L 909 3500 
z
" transform="scale(0.015625)"/>
       <path id="DejaVuSans-Oblique-6e" d="M 3566 2113 
L 3156 0 
L 2578 0 
L 2988 2091 
Q 3016 2238 3031 2350 
Q 3047 2463 3047 2528 
Q 3047 2791 2881 2937 
Q 2716 3084 2419 3084 
Q 1956 3084 1622 2776 
Q 1288 2469 1184 1941 
L 800 0 
L 225 0 
L 903 3500 
L 1478 3500 
L 1363 2950 
Q 1603 3253 1940 3418 
Q 2278 3584 2650 3584 
Q 3113 3584 3367 3334 
Q 3622 3084 3622 2631 
Q 3622 2519 3608 2391 
Q 3594 2263 3566 2113 
z
" transform="scale(0.015625)"/>
      </defs>
      <use xlink:href="#DejaVuSans-49" transform="translate(0 0.78125)"/>
      <use xlink:href="#DejaVuSans-6e" transform="translate(29.492188 0.78125)"/>
      <use xlink:href="#DejaVuSans-70" transform="translate(92.871094 0.78125)"/>
      <use xlink:href="#DejaVuSans-75" transform="translate(156.347656 0.78125)"/>
      <use xlink:href="#DejaVuSans-74" transform="translate(219.726562 0.78125)"/>
      <use xlink:href="#DejaVuSans-20" transform="translate(258.935547 0.78125)"/>
      <use xlink:href="#DejaVuSans-43" transform="translate(290.722656 0.78125)"/>
      <use xlink:href="#DejaVuSans-75" transform="translate(360.546875 0.78125)"/>
      <use xlink:href="#DejaVuSans-72" transform="translate(423.925781 0.78125)"/>
      <use xlink:href="#DejaVuSans-72" transform="translate(465.039062 0.78125)"/>
      <use xlink:href="#DejaVuSans-65" transform="translate(506.152344 0.78125)"/>
      <use xlink:href="#DejaVuSans-6e" transform="translate(567.675781 0.78125)"/>
      <use xlink:href="#DejaVuSans-74" transform="translate(631.054688 0.78125)"/>
      <use xlink:href="#DejaVuSans-20" transform="translate(670.263672 0.78125)"/>
      <use xlink:href="#DejaVuSans-Oblique-49" transform="translate(702.050781 0.78125)"/>
      <use xlink:href="#DejaVuSans-Oblique-69" transform="translate(731.542969 -15.625) scale(0.7)"/>
      <use xlink:href="#DejaVuSans-Oblique-6e" transform="translate(750.991211 -15.625) scale(0.7)"/>
     </g>
     <!-- (GPU only) -->
     <g transform="translate(35.864125 131.352292) rotate(-90) scale(0.1 -0.1)">
      <defs>
       <path id="DejaVuSans-28" d="M 1984 4856 
Q 1566 4138 1362 3434 
Q 1159 2731 1159 2009 
Q 1159 1288 1364 580 
Q 1569 -128 1984 -844 
L 1484 -844 
Q 1016 -109 783 600 
Q 550 1309 550 2009 
Q 550 2706 781 3412 
Q 1013 4119 1484 4856 
L 1984 4856 
z
" transform="scale(0.015625)"/>
       <path id="DejaVuSans-47" d="M 3809 666 
L 3809 1919 
L 2778 1919 
L 2778 2438 
L 4434 2438 
L 4434 434 
Q 4069 175 3628 42 
Q 3188 -91 2688 -91 
Q 1594 -91 976 548 
Q 359 1188 359 2328 
Q 359 3472 976 4111 
Q 1594 4750 2688 4750 
Q 3144 4750 3555 4637 
Q 3966 4525 4313 4306 
L 4313 3634 
Q 3963 3931 3569 4081 
Q 3175 4231 2741 4231 
Q 1884 4231 1454 3753 
Q 1025 3275 1025 2328 
Q 1025 1384 1454 906 
Q 1884 428 2741 428 
Q 3075 428 3337 486 
Q 3600 544 3809 666 
z
" transform="scale(0.015625)"/>
       <path id="DejaVuSans-50" d="M 1259 4147 
L 1259 2394 
L 2053 2394 
Q 2494 2394 2734 2622 
Q 2975 2850 2975 3272 
Q 2975 3691 2734 3919 
Q 2494 4147 2053 4147 
L 1259 4147 
z
M 628 4666 
L 2053 4666 
Q 2838 4666 3239 4311 
Q 3641 3956 3641 3272 
Q 3641 2581 3239 2228 
Q 2838 1875 2053 1875 
L 1259 1875 
L 1259 0 
L 628 0 
L 628 4666 
z
" transform="scale(0.015625)"/>
       <path id="DejaVuSans-55" d="M 556 4666 
L 1191 4666 
L 1191 1831 
Q 1191 1081 1462 751 
Q 1734 422 2344 422 
Q 2950 422 3222 751 
Q 3494 1081 3494 1831 
L 3494 4666 
L 4128 4666 
L 4128 1753 
Q 4128 841 3676 375 
Q 3225 -91 2344 -91 
Q 1459 -91 1007 375 
Q 556 841 556 1753 
L 556 4666 
z
" transform="scale(0.015625)"/>
       <path id="DejaVuSans-6f" d="M 1959 3097 
Q 1497 3097 1228 2736 
Q 959 2375 959 1747 
Q 959 1119 1226 758 
Q 1494 397 1959 397 
Q 2419 397 2687 759 
Q 2956 1122 2956 1747 
Q 2956 2369 2687 2733 
Q 2419 3097 1959 3097 
z
M 1959 3584 
Q 2709 3584 3137 3096 
Q 3566 2609 3566 1747 
Q 3566 888 3137 398 
Q 2709 -91 1959 -91 
Q 1206 -91 779 398 
Q 353 888 353 1747 
Q 353 2609 779 3096 
Q 1206 3584 1959 3584 
z
" transform="scale(0.015625)"/>
       <path id="DejaVuSans-6c" d="M 603 4863 
L 1178 4863 
L 1178 0 
L 603 0 
L 603 4863 
z
" transform="scale(0.015625)"/>
       <path id="DejaVuSans-79" d="M 2059 -325 
Q 1816 -950 1584 -1140 
Q 1353 -1331 966 -1331 
L 506 -1331 
L 506 -850 
L 844 -850 
Q 1081 -850 1212 -737 
Q 1344 -625 1503 -206 
L 1606 56 
L 191 3500 
L 800 3500 
L 1894 763 
L 2988 3500 
L 3597 3500 
L 2059 -325 
z
" transform="scale(0.015625)"/>
       <path id="DejaVuSans-29" d="M 513 4856 
L 1013 4856 
Q 1481 4119 1714 3412 
Q 1947 2706 1947 2009 
Q 1947 1309 1714 600 
Q 1481 -109 1013 -844 
L 513 -844 
Q 928 -128 1133 580 
Q 1338 1288 1338 2009 
Q 1338 2731 1133 3434 
Q 928 4138 513 4856 
z
" transform="scale(0.015625)"/>
      </defs>
      <use xlink:href="#DejaVuSans-28"/>
      <use xlink:href="#DejaVuSans-47" x="39.013672"/>
      <use xlink:href="#DejaVuSans-50" x="116.503906"/>
      <use xlink:href="#DejaVuSans-55" x="176.806641"/>
      <use xlink:href="#DejaVuSans-20" x="250"/>
      <use xlink:href="#DejaVuSans-6f" x="281.787109"/>
      <use xlink:href="#DejaVuSans-6e" x="342.96875"/>
      <use xlink:href="#DejaVuSans-6c" x="406.347656"/>
      <use xlink:href="#DejaVuSans-79" x="434.130859"/>
      <use xlink:href="#DejaVuSans-29" x="493.310547"/>
     </g>
    </g>
   </g>
   <g id="line2d_11">
    <path d="M 86.349446 107.685237 
L 105.235652 85.827763 
L 124.121857 99.027701 
L 143.008062 88.073901 
L 161.894267 151.738149 
L 180.780472 108.312881 
L 199.666678 123.019451 
L 218.552883 107.191931 
L 237.439088 105.600498 
L 256.325293 120.771433 
L 275.211499 123.481186 
L 294.097704 122.144245 
L 312.983909 57.932305 
L 331.870114 48.755756 
L 350.75632 53.219812 
L 369.642525 130.685351 
L 388.52873 138.258366 
L 407.414935 100.804442 
L 426.30114 116.885851 
L 445.187346 160.717578 
L 464.073551 147.527571 
L 482.959756 149.480221 
L 501.845961 99.578402 
L 520.732167 112.503548 
L 539.618372 107.690823 
" clip-path="url(#p542e763cf7)" style="fill: none; stroke-dasharray: 5.55,2.4; stroke-dashoffset: 0; stroke: #ff7f0e; stroke-width: 1.5"/>
    <defs>
     <path id="m90982f1eff" d="M 0 1.5 
C 0.397805 1.5 0.77937 1.341951 1.06066 1.06066 
C 1.341951 0.77937 1.5 0.397805 1.5 0 
C 1.5 -0.397805 1.341951 -0.77937 1.06066 -1.06066 
C 0.77937 -1.341951 0.397805 -1.5 0 -1.5 
C -0.397805 -1.5 -0.77937 -1.341951 -1.06066 -1.06066 
C -1.341951 -0.77937 -1.5 -0.397805 -1.5 0 
C -1.5 0.397805 -1.341951 0.77937 -1.06066 1.06066 
C -0.77937 1.341951 -0.397805 1.5 0 1.5 
z
" style="stroke: #ff7f0e"/>
    </defs>
    <g clip-path="url(#p542e763cf7)">
     <use xlink:href="#m90982f1eff" x="86.349446" y="107.685237" style="fill: #ff7f0e; stroke: #ff7f0e"/>
     <use xlink:href="#m90982f1eff" x="105.235652" y="85.827763" style="fill: #ff7f0e; stroke: #ff7f0e"/>
     <use xlink:href="#m90982f1eff" x="124.121857" y="99.027701" style="fill: #ff7f0e; stroke: #ff7f0e"/>
     <use xlink:href="#m90982f1eff" x="143.008062" y="88.073901" style="fill: #ff7f0e; stroke: #ff7f0e"/>
     <use xlink:href="#m90982f1eff" x="161.894267" y="151.738149" style="fill: #ff7f0e; stroke: #ff7f0e"/>
     <use xlink:href="#m90982f1eff" x="180.780472" y="108.312881" style="fill: #ff7f0e; stroke: #ff7f0e"/>
     <use xlink:href="#m90982f1eff" x="199.666678" y="123.019451" style="fill: #ff7f0e; stroke: #ff7f0e"/>
     <use xlink:href="#m90982f1eff" x="218.552883" y="107.191931" style="fill: #ff7f0e; stroke: #ff7f0e"/>
     <use xlink:href="#m90982f1eff" x="237.439088" y="105.600498" style="fill: #ff7f0e; stroke: #ff7f0e"/>
     <use xlink:href="#m90982f1eff" x="256.325293" y="120.771433" style="fill: #ff7f0e; stroke: #ff7f0e"/>
     <use xlink:href="#m90982f1eff" x="275.211499" y="123.481186" style="fill: #ff7f0e; stroke: #ff7f0e"/>
     <use xlink:href="#m90982f1eff" x="294.097704" y="122.144245" style="fill: #ff7f0e; stroke: #ff7f0e"/>
     <use xlink:href="#m90982f1eff" x="312.983909" y="57.932305" style="fill: #ff7f0e; stroke: #ff7f0e"/>
     <use xlink:href="#m90982f1eff" x="331.870114" y="48.755756" style="fill: #ff7f0e; stroke: #ff7f0e"/>
     <use xlink:href="#m90982f1eff" x="350.75632" y="53.219812" style="fill: #ff7f0e; stroke: #ff7f0e"/>
     <use xlink:href="#m90982f1eff" x="369.642525" y="130.685351" style="fill: #ff7f0e; stroke: #ff7f0e"/>
     <use xlink:href="#m90982f1eff" x="388.52873" y="138.258366" style="fill: #ff7f0e; stroke: #ff7f0e"/>
     <use xlink:href="#m90982f1eff" x="407.414935" y="100.804442" style="fill: #ff7f0e; stroke: #ff7f0e"/>
     <use xlink:href="#m90982f1eff" x="426.30114" y="116.885851" style="fill: #ff7f0e; stroke: #ff7f0e"/>
     <use xlink:href="#m90982f1eff" x="445.187346" y="160.717578" style="fill: #ff7f0e; stroke: #ff7f0e"/>
     <use xlink:href="#m90982f1eff" x="464.073551" y="147.527571" style="fill: #ff7f0e; stroke: #ff7f0e"/>
     <use xlink:href="#m90982f1eff" x="482.959756" y="149.480221" style="fill: #ff7f0e; stroke: #ff7f0e"/>
     <use xlink:href="#m90982f1eff" x="501.845961" y="99.578402" style="fill: #ff7f0e; stroke: #ff7f0e"/>
     <use xlink:href="#m90982f1eff" x="520.732167" y="112.503548" style="fill: #ff7f0e; stroke: #ff7f0e"/>
     <use xlink:href="#m90982f1eff" x="539.618372" y="107.690823" style="fill: #ff7f0e; stroke: #ff7f0e"/>
    </g>
   </g>
   <g id="patch_3">
    <path d="M 63.686 167.617333 
L 63.686 41.856 
" style="fill: none; stroke: #000000; stroke-width: 0.8; stroke-linejoin: miter; stroke-linecap: square"/>
   </g>
   <g id="patch_4">
    <path d="M 562.281818 167.617333 
L 562.281818 41.856 
" style="fill: none; stroke: #000000; stroke-width: 0.8; stroke-linejoin: miter; stroke-linecap: square"/>
   </g>
   <g id="patch_5">
    <path d="M 63.686 167.617333 
L 562.281818 167.617333 
" style="fill: none; stroke: #000000; stroke-width: 0.8; stroke-linejoin: miter; stroke-linecap: square"/>
   </g>
   <g id="patch_6">
    <path d="M 63.686 41.856 
L 562.281818 41.856 
" style="fill: none; stroke: #000000; stroke-width: 0.8; stroke-linejoin: miter; stroke-linecap: square"/>
   </g>
   <g id="text_6">
    <!-- LIF membrane potential traces comparison (GPU vs NPU) -->
    <g transform="translate(141.394222 22.418625) scale(0.12 -0.12)">
     <defs>
      <path id="DejaVuSans-4c" d="M 628 4666 
L 1259 4666 
L 1259 531 
L 3531 531 
L 3531 0 
L 628 0 
L 628 4666 
z
" transform="scale(0.015625)"/>
      <path id="DejaVuSans-46" d="M 628 4666 
L 3309 4666 
L 3309 4134 
L 1259 4134 
L 1259 2759 
L 3109 2759 
L 3109 2228 
L 1259 2228 
L 1259 0 
L 628 0 
L 628 4666 
z
" transform="scale(0.015625)"/>
      <path id="DejaVuSans-6d" d="M 3328 2828 
Q 3544 3216 3844 3400 
Q 4144 3584 4550 3584 
Q 5097 3584 5394 3201 
Q 5691 2819 5691 2113 
L 5691 0 
L 5113 0 
L 5113 2094 
Q 5113 2597 4934 2840 
Q 4756 3084 4391 3084 
Q 3944 3084 3684 2787 
Q 3425 2491 3425 1978 
L 3425 0 
L 2847 0 
L 2847 2094 
Q 2847 2600 2669 2842 
Q 2491 3084 2119 3084 
Q 1678 3084 1418 2786 
Q 1159 2488 1159 1978 
L 1159 0 
L 581 0 
L 581 3500 
L 1159 3500 
L 1159 2956 
Q 1356 3278 1631 3431 
Q 1906 3584 2284 3584 
Q 2666 3584 2933 3390 
Q 3200 3197 3328 2828 
z
" transform="scale(0.015625)"/>
      <path id="DejaVuSans-62" d="M 3116 1747 
Q 3116 2381 2855 2742 
Q 2594 3103 2138 3103 
Q 1681 3103 1420 2742 
Q 1159 2381 1159 1747 
Q 1159 1113 1420 752 
Q 1681 391 2138 391 
Q 2594 391 2855 752 
Q 3116 1113 3116 1747 
z
M 1159 2969 
Q 1341 3281 1617 3432 
Q 1894 3584 2278 3584 
Q 2916 3584 3314 3078 
Q 3713 2572 3713 1747 
Q 3713 922 3314 415 
Q 2916 -91 2278 -91 
Q 1894 -91 1617 61 
Q 1341 213 1159 525 
L 1159 0 
L 581 0 
L 581 4863 
L 1159 4863 
L 1159 2969 
z
" transform="scale(0.015625)"/>
      <path id="DejaVuSans-61" d="M 2194 1759 
Q 1497 1759 1228 1600 
Q 959 1441 959 1056 
Q 959 750 1161 570 
Q 1363 391 1709 391 
Q 2188 391 2477 730 
Q 2766 1069 2766 1631 
L 2766 1759 
L 2194 1759 
z
M 3341 1997 
L 3341 0 
L 2766 0 
L 2766 531 
Q 2569 213 2275 61 
Q 1981 -91 1556 -91 
Q 1019 -91 701 211 
Q 384 513 384 1019 
Q 384 1609 779 1909 
Q 1175 2209 1959 2209 
L 2766 2209 
L 2766 2266 
Q 2766 2663 2505 2880 
Q 2244 3097 1772 3097 
Q 1472 3097 1187 3025 
Q 903 2953 641 2809 
L 641 3341 
Q 956 3463 1253 3523 
Q 1550 3584 1831 3584 
Q 2591 3584 2966 3190 
Q 3341 2797 3341 1997 
z
" transform="scale(0.015625)"/>
      <path id="DejaVuSans-69" d="M 603 3500 
L 1178 3500 
L 1178 0 
L 603 0 
L 603 3500 
z
M 603 4863 
L 1178 4863 
L 1178 4134 
L 603 4134 
L 603 4863 
z
" transform="scale(0.015625)"/>
      <path id="DejaVuSans-63" d="M 3122 3366 
L 3122 2828 
Q 2878 2963 2633 3030 
Q 2388 3097 2138 3097 
Q 1578 3097 1268 2742 
Q 959 2388 959 1747 
Q 959 1106 1268 751 
Q 1578 397 2138 397 
Q 2388 397 2633 464 
Q 2878 531 3122 666 
L 3122 134 
Q 2881 22 2623 -34 
Q 2366 -91 2075 -91 
Q 1284 -91 818 406 
Q 353 903 353 1747 
Q 353 2603 823 3093 
Q 1294 3584 2113 3584 
Q 2378 3584 2631 3529 
Q 2884 3475 3122 3366 
z
" transform="scale(0.015625)"/>
      <path id="DejaVuSans-73" d="M 2834 3397 
L 2834 2853 
Q 2591 2978 2328 3040 
Q 2066 3103 1784 3103 
Q 1356 3103 1142 2972 
Q 928 2841 928 2578 
Q 928 2378 1081 2264 
Q 1234 2150 1697 2047 
L 1894 2003 
Q 2506 1872 2764 1633 
Q 3022 1394 3022 966 
Q 3022 478 2636 193 
Q 2250 -91 1575 -91 
Q 1294 -91 989 -36 
Q 684 19 347 128 
L 347 722 
Q 666 556 975 473 
Q 1284 391 1588 391 
Q 1994 391 2212 530 
Q 2431 669 2431 922 
Q 2431 1156 2273 1281 
Q 2116 1406 1581 1522 
L 1381 1569 
Q 847 1681 609 1914 
Q 372 2147 372 2553 
Q 372 3047 722 3315 
Q 1072 3584 1716 3584 
Q 2034 3584 2315 3537 
Q 2597 3491 2834 3397 
z
" transform="scale(0.015625)"/>
      <path id="DejaVuSans-76" d="M 191 3500 
L 800 3500 
L 1894 563 
L 2988 3500 
L 3597 3500 
L 2284 0 
L 1503 0 
L 191 3500 
z
" transform="scale(0.015625)"/>
      <path id="DejaVuSans-4e" d="M 628 4666 
L 1478 4666 
L 3547 763 
L 3547 4666 
L 4159 4666 
L 4159 0 
L 3309 0 
L 1241 3903 
L 1241 0 
L 628 0 
L 628 4666 
z
" transform="scale(0.015625)"/>
     </defs>
     <use xlink:href="#DejaVuSans-4c"/>
     <use xlink:href="#DejaVuSans-49" x="55.712891"/>
     <use xlink:href="#DejaVuSans-46" x="85.205078"/>
     <use xlink:href="#DejaVuSans-20" x="142.724609"/>
     <use xlink:href="#DejaVuSans-6d" x="174.511719"/>
     <use xlink:href="#DejaVuSans-65" x="271.923828"/>
     <use xlink:href="#DejaVuSans-6d" x="333.447266"/>
     <use xlink:href="#DejaVuSans-62" x="430.859375"/>
     <use xlink:href="#DejaVuSans-72" x="494.335938"/>
     <use xlink:href="#DejaVuSans-61" x="535.449219"/>
     <use xlink:href="#DejaVuSans-6e" x="596.728516"/>
     <use xlink:href="#DejaVuSans-65" x="660.107422"/>
     <use xlink:href="#DejaVuSans-20" x="721.630859"/>
     <use xlink:href="#DejaVuSans-70" x="753.417969"/>
     <use xlink:href="#DejaVuSans-6f" x="816.894531"/>
     <use xlink:href="#DejaVuSans-74" x="878.076172"/>
     <use xlink:href="#DejaVuSans-65" x="917.285156"/>
     <use xlink:href="#DejaVuSans-6e" x="978.808594"/>
     <use xlink:href="#DejaVuSans-74" x="1042.1875"/>
     <use xlink:href="#DejaVuSans-69" x="1081.396484"/>
     <use xlink:href="#DejaVuSans-61" x="1109.179688"/>
     <use xlink:href="#DejaVuSans-6c" x="1170.458984"/>
     <use xlink:href="#DejaVuSans-20" x="1198.242188"/>
     <use xlink:href="#DejaVuSans-74" x="1230.029297"/>
     <use xlink:href="#DejaVuSans-72" x="1269.238281"/>
     <use xlink:href="#DejaVuSans-61" x="1310.351562"/>
     <use xlink:href="#DejaVuSans-63" x="1371.630859"/>
     <use xlink:href="#DejaVuSans-65" x="1426.611328"/>
     <use xlink:href="#DejaVuSans-73" x="1488.134766"/>
     <use xlink:href="#DejaVuSans-20" x="1540.234375"/>
     <use xlink:href="#DejaVuSans-63" x="1572.021484"/>
     <use xlink:href="#DejaVuSans-6f" x="1627.001953"/>
     <use xlink:href="#DejaVuSans-6d" x="1688.183594"/>
     <use xlink:href="#DejaVuSans-70" x="1785.595703"/>
     <use xlink:href="#DejaVuSans-61" x="1849.072266"/>
     <use xlink:href="#DejaVuSans-72" x="1910.351562"/>
     <use xlink:href="#DejaVuSans-69" x="1951.464844"/>
     <use xlink:href="#DejaVuSans-73" x="1979.248047"/>
     <use xlink:href="#DejaVuSans-6f" x="2031.347656"/>
     <use xlink:href="#DejaVuSans-6e" x="2092.529297"/>
     <use xlink:href="#DejaVuSans-20" x="2155.908203"/>
     <use xlink:href="#DejaVuSans-28" x="2187.695312"/>
     <use xlink:href="#DejaVuSans-47" x="2226.708984"/>
     <use xlink:href="#DejaVuSans-50" x="2304.199219"/>
     <use xlink:href="#DejaVuSans-55" x="2364.501953"/>
     <use xlink:href="#DejaVuSans-20" x="2437.695312"/>
     <use xlink:href="#DejaVuSans-76" x="2469.482422"/>
     <use xlink:href="#DejaVuSans-73" x="2528.662109"/>
     <use xlink:href="#DejaVuSans-20" x="2580.761719"/>
     <use xlink:href="#DejaVuSans-4e" x="2612.548828"/>
     <use xlink:href="#DejaVuSans-50" x="2687.353516"/>
     <use xlink:href="#DejaVuSans-55" x="2747.65625"/>
     <use xlink:href="#DejaVuSans-29" x="2820.849609"/>
    </g>
    <!-- Model 784x56x56x56x10, Neuron 45, Layer 0 (Test Sample 7) -->
    <g transform="translate(126.919222 35.856) scale(0.12 -0.12)">
     <defs>
      <path id="DejaVuSans-4d" d="M 628 4666 
L 1569 4666 
L 2759 1491 
L 3956 4666 
L 4897 4666 
L 4897 0 
L 4281 0 
L 4281 4097 
L 3078 897 
L 2444 897 
L 1241 4097 
L 1241 0 
L 628 0 
L 628 4666 
z
" transform="scale(0.015625)"/>
      <path id="DejaVuSans-64" d="M 2906 2969 
L 2906 4863 
L 3481 4863 
L 3481 0 
L 2906 0 
L 2906 525 
Q 2725 213 2448 61 
Q 2172 -91 1784 -91 
Q 1150 -91 751 415 
Q 353 922 353 1747 
Q 353 2572 751 3078 
Q 1150 3584 1784 3584 
Q 2172 3584 2448 3432 
Q 2725 3281 2906 2969 
z
M 947 1747 
Q 947 1113 1208 752 
Q 1469 391 1925 391 
Q 2381 391 2643 752 
Q 2906 1113 2906 1747 
Q 2906 2381 2643 2742 
Q 2381 3103 1925 3103 
Q 1469 3103 1208 2742 
Q 947 2381 947 1747 
z
" transform="scale(0.015625)"/>
      <path id="DejaVuSans-37" d="M 525 4666 
L 3525 4666 
L 3525 4397 
L 1831 0 
L 1172 0 
L 2766 4134 
L 525 4134 
L 525 4666 
z
" transform="scale(0.015625)"/>
      <path id="DejaVuSans-38" d="M 2034 2216 
Q 1584 2216 1326 1975 
Q 1069 1734 1069 1313 
Q 1069 891 1326 650 
Q 1584 409 2034 409 
Q 2484 409 2743 651 
Q 3003 894 3003 1313 
Q 3003 1734 2745 1975 
Q 2488 2216 2034 2216 
z
M 1403 2484 
Q 997 2584 770 2862 
Q 544 3141 544 3541 
Q 544 4100 942 4425 
Q 1341 4750 2034 4750 
Q 2731 4750 3128 4425 
Q 3525 4100 3525 3541 
Q 3525 3141 3298 2862 
Q 3072 2584 2669 2484 
Q 3125 2378 3379 2068 
Q 3634 1759 3634 1313 
Q 3634 634 3220 271 
Q 2806 -91 2034 -91 
Q 1263 -91 848 271 
Q 434 634 434 1313 
Q 434 1759 690 2068 
Q 947 2378 1403 2484 
z
M 1172 3481 
Q 1172 3119 1398 2916 
Q 1625 2713 2034 2713 
Q 2441 2713 2670 2916 
Q 2900 3119 2900 3481 
Q 2900 3844 2670 4047 
Q 2441 4250 2034 4250 
Q 1625 4250 1398 4047 
Q 1172 3844 1172 3481 
z
" transform="scale(0.015625)"/>
      <path id="DejaVuSans-34" d="M 2419 4116 
L 825 1625 
L 2419 1625 
L 2419 4116 
z
M 2253 4666 
L 3047 4666 
L 3047 1625 
L 3713 1625 
L 3713 1100 
L 3047 1100 
L 3047 0 
L 2419 0 
L 2419 1100 
L 313 1100 
L 313 1709 
L 2253 4666 
z
" transform="scale(0.015625)"/>
      <path id="DejaVuSans-78" d="M 3513 3500 
L 2247 1797 
L 3578 0 
L 2900 0 
L 1881 1375 
L 863 0 
L 184 0 
L 1544 1831 
L 300 3500 
L 978 3500 
L 1906 2253 
L 2834 3500 
L 3513 3500 
z
" transform="scale(0.015625)"/>
      <path id="DejaVuSans-35" d="M 691 4666 
L 3169 4666 
L 3169 4134 
L 1269 4134 
L 1269 2991 
Q 1406 3038 1543 3061 
Q 1681 3084 1819 3084 
Q 2600 3084 3056 2656 
Q 3513 2228 3513 1497 
Q 3513 744 3044 326 
Q 2575 -91 1722 -91 
Q 1428 -91 1123 -41 
Q 819 9 494 109 
L 494 744 
Q 775 591 1075 516 
Q 1375 441 1709 441 
Q 2250 441 2565 725 
Q 2881 1009 2881 1497 
Q 2881 1984 2565 2268 
Q 2250 2553 1709 2553 
Q 1456 2553 1204 2497 
Q 953 2441 691 2322 
L 691 4666 
z
" transform="scale(0.015625)"/>
      <path id="DejaVuSans-36" d="M 2113 2584 
Q 1688 2584 1439 2293 
Q 1191 2003 1191 1497 
Q 1191 994 1439 701 
Q 1688 409 2113 409 
Q 2538 409 2786 701 
Q 3034 994 3034 1497 
Q 3034 2003 2786 2293 
Q 2538 2584 2113 2584 
z
M 3366 4563 
L 3366 3988 
Q 3128 4100 2886 4159 
Q 2644 4219 2406 4219 
Q 1781 4219 1451 3797 
Q 1122 3375 1075 2522 
Q 1259 2794 1537 2939 
Q 1816 3084 2150 3084 
Q 2853 3084 3261 2657 
Q 3669 2231 3669 1497 
Q 3669 778 3244 343 
Q 2819 -91 2113 -91 
Q 1303 -91 875 529 
Q 447 1150 447 2328 
Q 447 3434 972 4092 
Q 1497 4750 2381 4750 
Q 2619 4750 2861 4703 
Q 3103 4656 3366 4563 
z
" transform="scale(0.015625)"/>
      <path id="DejaVuSans-2c" d="M 750 794 
L 1409 794 
L 1409 256 
L 897 -744 
L 494 -744 
L 750 256 
L 750 794 
z
" transform="scale(0.015625)"/>
      <path id="DejaVuSans-54" d="M -19 4666 
L 3928 4666 
L 3928 4134 
L 2272 4134 
L 2272 0 
L 1638 0 
L 1638 4134 
L -19 4134 
L -19 4666 
z
" transform="scale(0.015625)"/>
      <path id="DejaVuSans-53" d="M 3425 4513 
L 3425 3897 
Q 3066 4069 2747 4153 
Q 2428 4238 2131 4238 
Q 1616 4238 1336 4038 
Q 1056 3838 1056 3469 
Q 1056 3159 1242 3001 
Q 1428 2844 1947 2747 
L 2328 2669 
Q 3034 2534 3370 2195 
Q 3706 1856 3706 1288 
Q 3706 609 3251 259 
Q 2797 -91 1919 -91 
Q 1588 -91 1214 -16 
Q 841 59 441 206 
L 441 856 
Q 825 641 1194 531 
Q 1563 422 1919 422 
Q 2459 422 2753 634 
Q 3047 847 3047 1241 
Q 3047 1584 2836 1778 
Q 2625 1972 2144 2069 
L 1759 2144 
Q 1053 2284 737 2584 
Q 422 2884 422 3419 
Q 422 4038 858 4394 
Q 1294 4750 2059 4750 
Q 2388 4750 2728 4690 
Q 3069 4631 3425 4513 
z
" transform="scale(0.015625)"/>
     </defs>
     <use xlink:href="#DejaVuSans-4d"/>
     <use xlink:href="#DejaVuSans-6f" x="86.279297"/>
     <use xlink:href="#DejaVuSans-64" x="147.460938"/>
     <use xlink:href="#DejaVuSans-65" x="210.9375"/>
     <use xlink:href="#DejaVuSans-6c" x="272.460938"/>
     <use xlink:href="#DejaVuSans-20" x="300.244141"/>
     <use xlink:href="#DejaVuSans-37" x="332.03125"/>
     <use xlink:href="#DejaVuSans-38" x="395.654297"/>
     <use xlink:href="#DejaVuSans-34" x="459.277344"/>
     <use xlink:href="#DejaVuSans-78" x="522.900391"/>
     <use xlink:href="#DejaVuSans-35" x="582.080078"/>
     <use xlink:href="#DejaVuSans-36" x="645.703125"/>
     <use xlink:href="#DejaVuSans-78" x="709.326172"/>
     <use xlink:href="#DejaVuSans-35" x="768.505859"/>
     <use xlink:href="#DejaVuSans-36" x="832.128906"/>
     <use xlink:href="#DejaVuSans-78" x="895.751953"/>
     <use xlink:href="#DejaVuSans-35" x="954.931641"/>
     <use xlink:href="#DejaVuSans-36" x="1018.554688"/>
     <use xlink:href="#DejaVuSans-78" x="1082.177734"/>
     <use xlink:href="#DejaVuSans-31" x="1141.357422"/>
     <use xlink:href="#DejaVuSans-30" x="1204.980469"/>
     <use xlink:href="#DejaVuSans-2c" x="1268.603516"/>
     <use xlink:href="#DejaVuSans-20" x="1300.390625"/>
     <use xlink:href="#DejaVuSans-4e" x="1332.177734"/>
     <use xlink:href="#DejaVuSans-65" x="1406.982422"/>
     <use xlink:href="#DejaVuSans-75" x="1468.505859"/>
     <use xlink:href="#DejaVuSans-72" x="1531.884766"/>
     <use xlink:href="#DejaVuSans-6f" x="1570.748047"/>
     <use xlink:href="#DejaVuSans-6e" x="1631.929688"/>
     <use xlink:href="#DejaVuSans-20" x="1695.308594"/>
     <use xlink:href="#DejaVuSans-34" x="1727.095703"/>
     <use xlink:href="#DejaVuSans-35" x="1790.71875"/>
     <use xlink:href="#DejaVuSans-2c" x="1854.341797"/>
     <use xlink:href="#DejaVuSans-20" x="1886.128906"/>
     <use xlink:href="#DejaVuSans-4c" x="1917.916016"/>
     <use xlink:href="#DejaVuSans-61" x="1973.628906"/>
     <use xlink:href="#DejaVuSans-79" x="2034.908203"/>
     <use xlink:href="#DejaVuSans-65" x="2094.087891"/>
     <use xlink:href="#DejaVuSans-72" x="2155.611328"/>
     <use xlink:href="#DejaVuSans-20" x="2196.724609"/>
     <use xlink:href="#DejaVuSans-30" x="2228.511719"/>
     <use xlink:href="#DejaVuSans-20" x="2292.134766"/>
     <use xlink:href="#DejaVuSans-28" x="2323.921875"/>
     <use xlink:href="#DejaVuSans-54" x="2362.935547"/>
     <use xlink:href="#DejaVuSans-65" x="2407.019531"/>
     <use xlink:href="#DejaVuSans-73" x="2468.542969"/>
     <use xlink:href="#DejaVuSans-74" x="2520.642578"/>
     <use xlink:href="#DejaVuSans-20" x="2559.851562"/>
     <use xlink:href="#DejaVuSans-53" x="2591.638672"/>
     <use xlink:href="#DejaVuSans-61" x="2655.115234"/>
     <use xlink:href="#DejaVuSans-6d" x="2716.394531"/>
     <use xlink:href="#DejaVuSans-70" x="2813.806641"/>
     <use xlink:href="#DejaVuSans-6c" x="2877.283203"/>
     <use xlink:href="#DejaVuSans-65" x="2905.066406"/>
     <use xlink:href="#DejaVuSans-20" x="2966.589844"/>
     <use xlink:href="#DejaVuSans-37" x="2998.376953"/>
     <use xlink:href="#DejaVuSans-29" x="3062"/>
    </g>
   </g>
   <g id="legend_1">
    <g id="patch_7">
     <path d="M 489.381818 64.534125 
L 555.281818 64.534125 
Q 557.281818 64.534125 557.281818 62.534125 
L 557.281818 48.856 
Q 557.281818 46.856 555.281818 46.856 
L 489.381818 46.856 
Q 487.381818 46.856 487.381818 48.856 
L 487.381818 62.534125 
Q 487.381818 64.534125 489.381818 64.534125 
z
" style="fill: #ffffff; opacity: 0.8; stroke: #cccccc; stroke-linejoin: miter"/>
    </g>
    <g id="line2d_12">
     <path d="M 491.381818 54.954437 
L 501.381818 54.954437 
L 511.381818 54.954437 
" style="fill: none; stroke-dasharray: 5.55,2.4; stroke-dashoffset: 0; stroke: #ff7f0e; stroke-width: 1.5"/>
     <g>
      <use xlink:href="#m90982f1eff" x="501.381818" y="54.954437" style="fill: #ff7f0e; stroke: #ff7f0e"/>
     </g>
    </g>
    <g id="text_7">
     <!-- GPU $I_{in}$ -->
     <g transform="translate(519.381818 58.454437) scale(0.1 -0.1)">
      <use xlink:href="#DejaVuSans-47" transform="translate(0 0.78125)"/>
      <use xlink:href="#DejaVuSans-50" transform="translate(77.490234 0.78125)"/>
      <use xlink:href="#DejaVuSans-55" transform="translate(137.792969 0.78125)"/>
      <use xlink:href="#DejaVuSans-20" transform="translate(210.986328 0.78125)"/>
      <use xlink:href="#DejaVuSans-Oblique-49" transform="translate(242.773438 0.78125)"/>
      <use xlink:href="#DejaVuSans-Oblique-69" transform="translate(272.265625 -15.625) scale(0.7)"/>
      <use xlink:href="#DejaVuSans-Oblique-6e" transform="translate(291.713867 -15.625) scale(0.7)"/>
     </g>
    </g>
   </g>
  </g>
  <g id="axes_2">
   <g id="patch_8">
    <path d="M 63.686 307.678667 
L 562.281818 307.678667 
L 562.281818 181.917333 
L 63.686 181.917333 
z
" style="fill: #ffffff"/>
   </g>
   <g id="matplotlib.axis_3">
    <g id="xtick_7">
     <g id="line2d_13">
      <g>
       <use xlink:href="#m18ca2e86dd" x="86.349446" y="307.678667" style="stroke: #000000; stroke-width: 0.8"/>
      </g>
     </g>
    </g>
    <g id="xtick_8">
     <g id="line2d_14">
      <g>
       <use xlink:href="#m18ca2e86dd" x="180.780472" y="307.678667" style="stroke: #000000; stroke-width: 0.8"/>
      </g>
     </g>
    </g>
    <g id="xtick_9">
     <g id="line2d_15">
      <g>
       <use xlink:href="#m18ca2e86dd" x="275.211499" y="307.678667" style="stroke: #000000; stroke-width: 0.8"/>
      </g>
     </g>
    </g>
    <g id="xtick_10">
     <g id="line2d_16">
      <g>
       <use xlink:href="#m18ca2e86dd" x="369.642525" y="307.678667" style="stroke: #000000; stroke-width: 0.8"/>
      </g>
     </g>
    </g>
    <g id="xtick_11">
     <g id="line2d_17">
      <g>
       <use xlink:href="#m18ca2e86dd" x="464.073551" y="307.678667" style="stroke: #000000; stroke-width: 0.8"/>
      </g>
     </g>
    </g>
    <g id="xtick_12">
     <g id="line2d_18">
      <g>
       <use xlink:href="#m18ca2e86dd" x="558.504577" y="307.678667" style="stroke: #000000; stroke-width: 0.8"/>
      </g>
     </g>
    </g>
   </g>
   <g id="matplotlib.axis_4">
    <g id="ytick_5">
     <g id="line2d_19">
      <g>
       <use xlink:href="#m569693dc71" x="63.686" y="273.06471" style="stroke: #000000; stroke-width: 0.8"/>
      </g>
     </g>
     <g id="text_8">
      <!-- −2 -->
      <g transform="translate(41.943813 276.863929) scale(0.1 -0.1)">
       <use xlink:href="#DejaVuSans-2212"/>
       <use xlink:href="#DejaVuSans-32" x="83.789062"/>
      </g>
     </g>
    </g>
    <g id="ytick_6">
     <g id="line2d_20">
      <g>
       <use xlink:href="#m569693dc71" x="63.686" y="231.62546" style="stroke: #000000; stroke-width: 0.8"/>
      </g>
     </g>
     <g id="text_9">
      <!-- 0 -->
      <g transform="translate(50.3235 235.424679) scale(0.1 -0.1)">
       <use xlink:href="#DejaVuSans-30"/>
      </g>
     </g>
    </g>
    <g id="ytick_7">
     <g id="line2d_21">
      <g>
       <use xlink:href="#m569693dc71" x="63.686" y="190.18621" style="stroke: #000000; stroke-width: 0.8"/>
      </g>
     </g>
     <g id="text_10">
      <!-- 2 -->
      <g transform="translate(50.3235 193.985429) scale(0.1 -0.1)">
       <use xlink:href="#DejaVuSans-32"/>
      </g>
     </g>
    </g>
    <g id="text_11">
     <!-- Membrane Potential $U_{mem}^{next}$ -->
     <g transform="translate(23.846 309.648) rotate(-90) scale(0.1 -0.1)">
      <defs>
       <path id="DejaVuSans-Oblique-55" d="M 991 4666 
L 1625 4666 
L 1075 1831 
Q 1041 1641 1027 1517 
Q 1013 1394 1013 1300 
Q 1013 869 1253 645 
Q 1494 422 1959 422 
Q 2563 422 2898 753 
Q 3234 1084 3378 1831 
L 3928 4666 
L 4563 4666 
L 4000 1753 
Q 3816 809 3300 359 
Q 2784 -91 1888 -91 
Q 1188 -91 780 261 
Q 372 613 372 1216 
Q 372 1325 387 1461 
Q 403 1597 434 1753 
L 991 4666 
z
" transform="scale(0.015625)"/>
       <path id="DejaVuSans-Oblique-65" d="M 3078 2063 
Q 3088 2113 3092 2166 
Q 3097 2219 3097 2272 
Q 3097 2653 2873 2875 
Q 2650 3097 2266 3097 
Q 1838 3097 1509 2826 
Q 1181 2556 1013 2059 
L 3078 2063 
z
M 3578 1613 
L 903 1613 
Q 884 1494 878 1425 
Q 872 1356 872 1306 
Q 872 872 1139 634 
Q 1406 397 1894 397 
Q 2269 397 2603 481 
Q 2938 566 3225 728 
L 3116 159 
Q 2806 34 2476 -28 
Q 2147 -91 1806 -91 
Q 1078 -91 686 257 
Q 294 606 294 1247 
Q 294 1794 489 2264 
Q 684 2734 1063 3103 
Q 1306 3334 1642 3459 
Q 1978 3584 2356 3584 
Q 2950 3584 3301 3228 
Q 3653 2872 3653 2272 
Q 3653 2128 3634 1964 
Q 3616 1800 3578 1613 
z
" transform="scale(0.015625)"/>
       <path id="DejaVuSans-Oblique-78" d="M 3841 3500 
L 2234 1784 
L 3219 0 
L 2559 0 
L 1819 1388 
L 531 0 
L -166 0 
L 1556 1844 
L 641 3500 
L 1300 3500 
L 1972 2234 
L 3144 3500 
L 3841 3500 
z
" transform="scale(0.015625)"/>
       <path id="DejaVuSans-Oblique-74" d="M 2706 3500 
L 2619 3053 
L 1472 3053 
L 1100 1153 
Q 1081 1047 1072 975 
Q 1063 903 1063 863 
Q 1063 663 1183 572 
Q 1303 481 1569 481 
L 2150 481 
L 2053 0 
L 1503 0 
Q 991 0 739 200 
Q 488 400 488 806 
Q 488 878 497 964 
Q 506 1050 525 1153 
L 897 3053 
L 409 3053 
L 500 3500 
L 978 3500 
L 1172 4494 
L 1747 4494 
L 1556 3500 
L 2706 3500 
z
" transform="scale(0.015625)"/>
       <path id="DejaVuSans-Oblique-6d" d="M 5747 2113 
L 5338 0 
L 4763 0 
L 5166 2094 
Q 5191 2228 5203 2325 
Q 5216 2422 5216 2491 
Q 5216 2772 5059 2928 
Q 4903 3084 4622 3084 
Q 4203 3084 3875 2770 
Q 3547 2456 3450 1953 
L 3066 0 
L 2491 0 
L 2900 2094 
Q 2925 2209 2937 2307 
Q 2950 2406 2950 2484 
Q 2950 2769 2794 2926 
Q 2638 3084 2363 3084 
Q 1938 3084 1609 2770 
Q 1281 2456 1184 1953 
L 800 0 
L 225 0 
L 909 3500 
L 1484 3500 
L 1375 2956 
Q 1609 3263 1923 3423 
Q 2238 3584 2597 3584 
Q 2978 3584 3223 3384 
Q 3469 3184 3519 2828 
Q 3781 3197 4126 3390 
Q 4472 3584 4856 3584 
Q 5306 3584 5551 3325 
Q 5797 3066 5797 2591 
Q 5797 2488 5784 2364 
Q 5772 2241 5747 2113 
z
" transform="scale(0.015625)"/>
      </defs>
      <use xlink:href="#DejaVuSans-4d" transform="translate(0 0.565625)"/>
      <use xlink:href="#DejaVuSans-65" transform="translate(86.279297 0.565625)"/>
      <use xlink:href="#DejaVuSans-6d" transform="translate(147.802734 0.565625)"/>
      <use xlink:href="#DejaVuSans-62" transform="translate(245.214844 0.565625)"/>
      <use xlink:href="#DejaVuSans-72" transform="translate(308.691406 0.565625)"/>
      <use xlink:href="#DejaVuSans-61" transform="translate(349.804688 0.565625)"/>
      <use xlink:href="#DejaVuSans-6e" transform="translate(411.083984 0.565625)"/>
      <use xlink:href="#DejaVuSans-65" transform="translate(474.462891 0.565625)"/>
      <use xlink:href="#DejaVuSans-20" transform="translate(535.986328 0.565625)"/>
      <use xlink:href="#DejaVuSans-50" transform="translate(567.773438 0.565625)"/>
      <use xlink:href="#DejaVuSans-6f" transform="translate(628.076172 0.565625)"/>
      <use xlink:href="#DejaVuSans-74" transform="translate(689.257812 0.565625)"/>
      <use xlink:href="#DejaVuSans-65" transform="translate(728.466797 0.565625)"/>
      <use xlink:href="#DejaVuSans-6e" transform="translate(789.990234 0.565625)"/>
      <use xlink:href="#DejaVuSans-74" transform="translate(853.369141 0.565625)"/>
      <use xlink:href="#DejaVuSans-69" transform="translate(892.578125 0.565625)"/>
      <use xlink:href="#DejaVuSans-61" transform="translate(920.361328 0.565625)"/>
      <use xlink:href="#DejaVuSans-6c" transform="translate(981.640625 0.565625)"/>
      <use xlink:href="#DejaVuSans-20" transform="translate(1009.423828 0.565625)"/>
      <use xlink:href="#DejaVuSans-Oblique-55" transform="translate(1041.210938 0.565625)"/>
      <use xlink:href="#DejaVuSans-Oblique-6e" transform="translate(1121.421068 38.846875) scale(0.7)"/>
      <use xlink:href="#DejaVuSans-Oblique-65" transform="translate(1165.786302 38.846875) scale(0.7)"/>
      <use xlink:href="#DejaVuSans-Oblique-78" transform="translate(1208.852708 38.846875) scale(0.7)"/>
      <use xlink:href="#DejaVuSans-Oblique-74" transform="translate(1250.27849 38.846875) scale(0.7)"/>
      <use xlink:href="#DejaVuSans-Oblique-6d" transform="translate(1114.404297 -26.778125) scale(0.7)"/>
      <use xlink:href="#DejaVuSans-Oblique-65" transform="translate(1182.592773 -26.778125) scale(0.7)"/>
      <use xlink:href="#DejaVuSans-Oblique-6d" transform="translate(1225.65918 -26.778125) scale(0.7)"/>
     </g>
     <!-- (Post Reset) -->
     <g transform="translate(35.864125 274.713625) rotate(-90) scale(0.1 -0.1)">
      <defs>
       <path id="DejaVuSans-52" d="M 2841 2188 
Q 3044 2119 3236 1894 
Q 3428 1669 3622 1275 
L 4263 0 
L 3584 0 
L 2988 1197 
Q 2756 1666 2539 1819 
Q 2322 1972 1947 1972 
L 1259 1972 
L 1259 0 
L 628 0 
L 628 4666 
L 2053 4666 
Q 2853 4666 3247 4331 
Q 3641 3997 3641 3322 
Q 3641 2881 3436 2590 
Q 3231 2300 2841 2188 
z
M 1259 4147 
L 1259 2491 
L 2053 2491 
Q 2509 2491 2742 2702 
Q 2975 2913 2975 3322 
Q 2975 3731 2742 3939 
Q 2509 4147 2053 4147 
L 1259 4147 
z
" transform="scale(0.015625)"/>
      </defs>
      <use xlink:href="#DejaVuSans-28"/>
      <use xlink:href="#DejaVuSans-50" x="39.013672"/>
      <use xlink:href="#DejaVuSans-6f" x="95.691406"/>
      <use xlink:href="#DejaVuSans-73" x="156.873047"/>
      <use xlink:href="#DejaVuSans-74" x="208.972656"/>
      <use xlink:href="#DejaVuSans-20" x="248.181641"/>
      <use xlink:href="#DejaVuSans-52" x="279.96875"/>
      <use xlink:href="#DejaVuSans-65" x="344.951172"/>
      <use xlink:href="#DejaVuSans-73" x="406.474609"/>
      <use xlink:href="#DejaVuSans-65" x="458.574219"/>
      <use xlink:href="#DejaVuSans-74" x="520.097656"/>
      <use xlink:href="#DejaVuSans-29" x="559.306641"/>
     </g>
    </g>
   </g>
   <g id="line2d_22">
    <path d="M 86.349446 228.837274 
L 105.235652 213.061115 
L 124.121857 226.721141 
L 143.008062 212.399797 
L 161.894267 237.030637 
L 180.780472 234.34915 
L 199.666678 240.634357 
L 218.552883 237.099451 
L 237.439088 232.785493 
L 256.325293 237.798746 
L 275.211499 244.188786 
L 294.097704 249.456371 
L 312.983909 215.895521 
L 331.870114 199.220991 
L 350.75632 186.061258 
L 369.642525 220.084549 
L 388.52873 236.235328 
L 407.414935 229.084111 
L 426.30114 231.94879 
L 445.187346 260.995138 
L 464.073551 280.667382 
L 482.959756 300.528751 
L 501.845961 289.426514 
L 520.732167 286.642105 
L 539.618372 281.106444 
" clip-path="url(#p46aca78ad3)" style="fill: none; stroke-dasharray: 5.55,2.4; stroke-dashoffset: 0; stroke: #0000ff; stroke-width: 1.5"/>
    <defs>
     <path id="m98bf6a50b4" d="M 0 1.5 
C 0.397805 1.5 0.77937 1.341951 1.06066 1.06066 
C 1.341951 0.77937 1.5 0.397805 1.5 0 
C 1.5 -0.397805 1.341951 -0.77937 1.06066 -1.06066 
C 0.77937 -1.341951 0.397805 -1.5 0 -1.5 
C -0.397805 -1.5 -0.77937 -1.341951 -1.06066 -1.06066 
C -1.341951 -0.77937 -1.5 -0.397805 -1.5 0 
C -1.5 0.397805 -1.341951 0.77937 -1.06066 1.06066 
C -0.77937 1.341951 -0.397805 1.5 0 1.5 
z
" style="stroke: #0000ff"/>
    </defs>
    <g clip-path="url(#p46aca78ad3)">
     <use xlink:href="#m98bf6a50b4" x="86.349446" y="228.837274" style="fill: #0000ff; stroke: #0000ff"/>
     <use xlink:href="#m98bf6a50b4" x="105.235652" y="213.061115" style="fill: #0000ff; stroke: #0000ff"/>
     <use xlink:href="#m98bf6a50b4" x="124.121857" y="226.721141" style="fill: #0000ff; stroke: #0000ff"/>
     <use xlink:href="#m98bf6a50b4" x="143.008062" y="212.399797" style="fill: #0000ff; stroke: #0000ff"/>
     <use xlink:href="#m98bf6a50b4" x="161.894267" y="237.030637" style="fill: #0000ff; stroke: #0000ff"/>
     <use xlink:href="#m98bf6a50b4" x="180.780472" y="234.34915" style="fill: #0000ff; stroke: #0000ff"/>
     <use xlink:href="#m98bf6a50b4" x="199.666678" y="240.634357" style="fill: #0000ff; stroke: #0000ff"/>
     <use xlink:href="#m98bf6a50b4" x="218.552883" y="237.099451" style="fill: #0000ff; stroke: #0000ff"/>
     <use xlink:href="#m98bf6a50b4" x="237.439088" y="232.785493" style="fill: #0000ff; stroke: #0000ff"/>
     <use xlink:href="#m98bf6a50b4" x="256.325293" y="237.798746" style="fill: #0000ff; stroke: #0000ff"/>
     <use xlink:href="#m98bf6a50b4" x="275.211499" y="244.188786" style="fill: #0000ff; stroke: #0000ff"/>
     <use xlink:href="#m98bf6a50b4" x="294.097704" y="249.456371" style="fill: #0000ff; stroke: #0000ff"/>
     <use xlink:href="#m98bf6a50b4" x="312.983909" y="215.895521" style="fill: #0000ff; stroke: #0000ff"/>
     <use xlink:href="#m98bf6a50b4" x="331.870114" y="199.220991" style="fill: #0000ff; stroke: #0000ff"/>
     <use xlink:href="#m98bf6a50b4" x="350.75632" y="186.061258" style="fill: #0000ff; stroke: #0000ff"/>
     <use xlink:href="#m98bf6a50b4" x="369.642525" y="220.084549" style="fill: #0000ff; stroke: #0000ff"/>
     <use xlink:href="#m98bf6a50b4" x="388.52873" y="236.235328" style="fill: #0000ff; stroke: #0000ff"/>
     <use xlink:href="#m98bf6a50b4" x="407.414935" y="229.084111" style="fill: #0000ff; stroke: #0000ff"/>
     <use xlink:href="#m98bf6a50b4" x="426.30114" y="231.94879" style="fill: #0000ff; stroke: #0000ff"/>
     <use xlink:href="#m98bf6a50b4" x="445.187346" y="260.995138" style="fill: #0000ff; stroke: #0000ff"/>
     <use xlink:href="#m98bf6a50b4" x="464.073551" y="280.667382" style="fill: #0000ff; stroke: #0000ff"/>
     <use xlink:href="#m98bf6a50b4" x="482.959756" y="300.528751" style="fill: #0000ff; stroke: #0000ff"/>
     <use xlink:href="#m98bf6a50b4" x="501.845961" y="289.426514" style="fill: #0000ff; stroke: #0000ff"/>
     <use xlink:href="#m98bf6a50b4" x="520.732167" y="286.642105" style="fill: #0000ff; stroke: #0000ff"/>
     <use xlink:href="#m98bf6a50b4" x="539.618372" y="281.106444" style="fill: #0000ff; stroke: #0000ff"/>
    </g>
   </g>
   <g id="line2d_23">
    <path d="M 86.349446 229.187858 
L 105.235652 213.343437 
L 124.121857 227.969047 
L 143.008062 213.343437 
L 161.894267 238.938265 
L 180.780472 237.719475 
L 199.666678 243.813469 
L 218.552883 240.157076 
L 237.439088 235.281873 
L 256.325293 241.375867 
L 275.211499 247.469881 
L 294.097704 252.345085 
L 312.983909 218.21864 
L 331.870114 202.374219 
L 350.75632 187.748608 
L 369.642525 221.875053 
L 388.52873 238.938265 
L 407.414935 231.62546 
L 426.30114 234.063062 
L 445.187346 263.314303 
L 464.073551 284.033928 
L 482.959756 303.534742 
L 501.845961 292.565524 
L 520.732167 290.127922 
L 539.618372 284.033928 
" clip-path="url(#p46aca78ad3)" style="fill: none; stroke-dasharray: 1.5,2.475; stroke-dashoffset: 0; stroke: #ff0000; stroke-width: 1.5"/>
    <defs>
     <path id="mfc29ae209e" d="M -3 3 
L 3 -3 
M -3 -3 
L 3 3 
" style="stroke: #ff0000"/>
    </defs>
    <g clip-path="url(#p46aca78ad3)">
     <use xlink:href="#mfc29ae209e" x="86.349446" y="229.187858" style="fill: #ff0000; stroke: #ff0000"/>
     <use xlink:href="#mfc29ae209e" x="105.235652" y="213.343437" style="fill: #ff0000; stroke: #ff0000"/>
     <use xlink:href="#mfc29ae209e" x="124.121857" y="227.969047" style="fill: #ff0000; stroke: #ff0000"/>
     <use xlink:href="#mfc29ae209e" x="143.008062" y="213.343437" style="fill: #ff0000; stroke: #ff0000"/>
     <use xlink:href="#mfc29ae209e" x="161.894267" y="238.938265" style="fill: #ff0000; stroke: #ff0000"/>
     <use xlink:href="#mfc29ae209e" x="180.780472" y="237.719475" style="fill: #ff0000; stroke: #ff0000"/>
     <use xlink:href="#mfc29ae209e" x="199.666678" y="243.813469" style="fill: #ff0000; stroke: #ff0000"/>
     <use xlink:href="#mfc29ae209e" x="218.552883" y="240.157076" style="fill: #ff0000; stroke: #ff0000"/>
     <use xlink:href="#mfc29ae209e" x="237.439088" y="235.281873" style="fill: #ff0000; stroke: #ff0000"/>
     <use xlink:href="#mfc29ae209e" x="256.325293" y="241.375867" style="fill: #ff0000; stroke: #ff0000"/>
     <use xlink:href="#mfc29ae209e" x="275.211499" y="247.469881" style="fill: #ff0000; stroke: #ff0000"/>
     <use xlink:href="#mfc29ae209e" x="294.097704" y="252.345085" style="fill: #ff0000; stroke: #ff0000"/>
     <use xlink:href="#mfc29ae209e" x="312.983909" y="218.21864" style="fill: #ff0000; stroke: #ff0000"/>
     <use xlink:href="#mfc29ae209e" x="331.870114" y="202.374219" style="fill: #ff0000; stroke: #ff0000"/>
     <use xlink:href="#mfc29ae209e" x="350.75632" y="187.748608" style="fill: #ff0000; stroke: #ff0000"/>
     <use xlink:href="#mfc29ae209e" x="369.642525" y="221.875053" style="fill: #ff0000; stroke: #ff0000"/>
     <use xlink:href="#mfc29ae209e" x="388.52873" y="238.938265" style="fill: #ff0000; stroke: #ff0000"/>
     <use xlink:href="#mfc29ae209e" x="407.414935" y="231.62546" style="fill: #ff0000; stroke: #ff0000"/>
     <use xlink:href="#mfc29ae209e" x="426.30114" y="234.063062" style="fill: #ff0000; stroke: #ff0000"/>
     <use xlink:href="#mfc29ae209e" x="445.187346" y="263.314303" style="fill: #ff0000; stroke: #ff0000"/>
     <use xlink:href="#mfc29ae209e" x="464.073551" y="284.033928" style="fill: #ff0000; stroke: #ff0000"/>
     <use xlink:href="#mfc29ae209e" x="482.959756" y="303.534742" style="fill: #ff0000; stroke: #ff0000"/>
     <use xlink:href="#mfc29ae209e" x="501.845961" y="292.565524" style="fill: #ff0000; stroke: #ff0000"/>
     <use xlink:href="#mfc29ae209e" x="520.732167" y="290.127922" style="fill: #ff0000; stroke: #ff0000"/>
     <use xlink:href="#mfc29ae209e" x="539.618372" y="284.033928" style="fill: #ff0000; stroke: #ff0000"/>
    </g>
   </g>
   <g id="line2d_24">
    <path d="M 63.686 210.905835 
L 562.281818 210.905835 
" clip-path="url(#p46aca78ad3)" style="fill: none; stroke-dasharray: 7.4,3.2; stroke-dashoffset: 0; stroke: #000000; stroke-opacity: 0.25; stroke-width: 2"/>
   </g>
   <g id="patch_9">
    <path d="M 63.686 307.678667 
L 63.686 181.917333 
" style="fill: none; stroke: #000000; stroke-width: 0.8; stroke-linejoin: miter; stroke-linecap: square"/>
   </g>
   <g id="patch_10">
    <path d="M 562.281818 307.678667 
L 562.281818 181.917333 
" style="fill: none; stroke: #000000; stroke-width: 0.8; stroke-linejoin: miter; stroke-linecap: square"/>
   </g>
   <g id="patch_11">
    <path d="M 63.686 307.678667 
L 562.281818 307.678667 
" style="fill: none; stroke: #000000; stroke-width: 0.8; stroke-linejoin: miter; stroke-linecap: square"/>
   </g>
   <g id="patch_12">
    <path d="M 63.686 181.917333 
L 562.281818 181.917333 
" style="fill: none; stroke: #000000; stroke-width: 0.8; stroke-linejoin: miter; stroke-linecap: square"/>
   </g>
   <g id="legend_2">
    <g id="patch_13">
     <path d="M 70.686 302.678667 
L 152.586 302.678667 
Q 154.586 302.678667 154.586 300.678667 
L 154.586 268.278667 
Q 154.586 266.278667 152.586 266.278667 
L 70.686 266.278667 
Q 68.686 266.278667 68.686 268.278667 
L 68.686 300.678667 
Q 68.686 302.678667 70.686 302.678667 
z
" style="fill: #ffffff; opacity: 0.8; stroke: #cccccc; stroke-linejoin: miter"/>
    </g>
    <g id="line2d_25">
     <path d="M 72.686 275.578667 
L 82.686 275.578667 
L 92.686 275.578667 
" style="fill: none; stroke-dasharray: 5.55,2.4; stroke-dashoffset: 0; stroke: #0000ff; stroke-width: 1.5"/>
     <g>
      <use xlink:href="#m98bf6a50b4" x="82.686" y="275.578667" style="fill: #0000ff; stroke: #0000ff"/>
     </g>
    </g>
    <g id="text_12">
     <!-- GPU $U_{mem}^{next}$ -->
     <g transform="translate(100.686 279.078667) scale(0.1 -0.1)">
      <use xlink:href="#DejaVuSans-47" transform="translate(0 0.565625)"/>
      <use xlink:href="#DejaVuSans-50" transform="translate(77.490234 0.565625)"/>
      <use xlink:href="#DejaVuSans-55" transform="translate(137.792969 0.565625)"/>
      <use xlink:href="#DejaVuSans-20" transform="translate(210.986328 0.565625)"/>
      <use xlink:href="#DejaVuSans-Oblique-55" transform="translate(242.773438 0.565625)"/>
      <use xlink:href="#DejaVuSans-Oblique-6e" transform="translate(322.983568 38.846875) scale(0.7)"/>
      <use xlink:href="#DejaVuSans-Oblique-65" transform="translate(367.348802 38.846875) scale(0.7)"/>
      <use xlink:href="#DejaVuSans-Oblique-78" transform="translate(410.415208 38.846875) scale(0.7)"/>
      <use xlink:href="#DejaVuSans-Oblique-74" transform="translate(451.84099 38.846875) scale(0.7)"/>
      <use xlink:href="#DejaVuSans-Oblique-6d" transform="translate(315.966797 -26.778125) scale(0.7)"/>
      <use xlink:href="#DejaVuSans-Oblique-65" transform="translate(384.155273 -26.778125) scale(0.7)"/>
      <use xlink:href="#DejaVuSans-Oblique-6d" transform="translate(427.22168 -26.778125) scale(0.7)"/>
     </g>
    </g>
    <g id="line2d_26">
     <path d="M 72.686 292.278667 
L 82.686 292.278667 
L 92.686 292.278667 
" style="fill: none; stroke-dasharray: 1.5,2.475; stroke-dashoffset: 0; stroke: #ff0000; stroke-width: 1.5"/>
     <g>
      <use xlink:href="#mfc29ae209e" x="82.686" y="292.278667" style="fill: #ff0000; stroke: #ff0000"/>
     </g>
    </g>
    <g id="text_13">
     <!-- NPU $U_{mem}^{next}$ -->
     <g transform="translate(100.686 295.778667) scale(0.1 -0.1)">
      <use xlink:href="#DejaVuSans-4e" transform="translate(0 0.565625)"/>
      <use xlink:href="#DejaVuSans-50" transform="translate(74.804688 0.565625)"/>
      <use xlink:href="#DejaVuSans-55" transform="translate(135.107422 0.565625)"/>
      <use xlink:href="#DejaVuSans-20" transform="translate(208.300781 0.565625)"/>
      <use xlink:href="#DejaVuSans-Oblique-55" transform="translate(240.087891 0.565625)"/>
      <use xlink:href="#DejaVuSans-Oblique-6e" transform="translate(320.298021 38.846875) scale(0.7)"/>
      <use xlink:href="#DejaVuSans-Oblique-65" transform="translate(364.663255 38.846875) scale(0.7)"/>
      <use xlink:href="#DejaVuSans-Oblique-78" transform="translate(407.729661 38.846875) scale(0.7)"/>
      <use xlink:href="#DejaVuSans-Oblique-74" transform="translate(449.155443 38.846875) scale(0.7)"/>
      <use xlink:href="#DejaVuSans-Oblique-6d" transform="translate(313.28125 -26.778125) scale(0.7)"/>
      <use xlink:href="#DejaVuSans-Oblique-65" transform="translate(381.469727 -26.778125) scale(0.7)"/>
      <use xlink:href="#DejaVuSans-Oblique-6d" transform="translate(424.536133 -26.778125) scale(0.7)"/>
     </g>
    </g>
   </g>
  </g>
  <g id="axes_3">
   <g id="patch_14">
    <path d="M 63.686 372.2832 
L 562.281818 372.2832 
L 562.281818 321.978667 
L 63.686 321.978667 
z
" style="fill: #ffffff"/>
   </g>
   <g id="PathCollection_1">
    <defs>
     <path id="m443f560231" d="M 0 7.071068 
L 0 -7.071068 
" style="stroke: #0000ff; stroke-width: 1.5"/>
    </defs>
    <g clip-path="url(#p6da7c99385)">
     <use xlink:href="#m443f560231" x="124.121857" y="324.265236" style="fill: #0000ff; stroke: #0000ff; stroke-width: 1.5"/>
     <use xlink:href="#m443f560231" x="331.870114" y="324.265236" style="fill: #0000ff; stroke: #0000ff; stroke-width: 1.5"/>
     <use xlink:href="#m443f560231" x="350.75632" y="324.265236" style="fill: #0000ff; stroke: #0000ff; stroke-width: 1.5"/>
     <use xlink:href="#m443f560231" x="369.642525" y="324.265236" style="fill: #0000ff; stroke: #0000ff; stroke-width: 1.5"/>
    </g>
   </g>
   <g id="PathCollection_2">
    <defs>
     <path id="mfea3ed1908" d="M 0 7.071068 
L 0 -7.071068 
" style="stroke: #ff0000; stroke-width: 1.5"/>
    </defs>
    <g clip-path="url(#p6da7c99385)">
     <use xlink:href="#mfea3ed1908" x="124.121857" y="369.99663" style="fill: #ff0000; stroke: #ff0000; stroke-width: 1.5"/>
     <use xlink:href="#mfea3ed1908" x="331.870114" y="369.99663" style="fill: #ff0000; stroke: #ff0000; stroke-width: 1.5"/>
     <use xlink:href="#mfea3ed1908" x="350.75632" y="369.99663" style="fill: #ff0000; stroke: #ff0000; stroke-width: 1.5"/>
     <use xlink:href="#mfea3ed1908" x="369.642525" y="369.99663" style="fill: #ff0000; stroke: #ff0000; stroke-width: 1.5"/>
    </g>
   </g>
   <g id="matplotlib.axis_5">
    <g id="xtick_13">
     <g id="line2d_27">
      <g>
       <use xlink:href="#m18ca2e86dd" x="86.349446" y="372.2832" style="stroke: #000000; stroke-width: 0.8"/>
      </g>
     </g>
    </g>
    <g id="xtick_14">
     <g id="line2d_28">
      <g>
       <use xlink:href="#m18ca2e86dd" x="180.780472" y="372.2832" style="stroke: #000000; stroke-width: 0.8"/>
      </g>
     </g>
    </g>
    <g id="xtick_15">
     <g id="line2d_29">
      <g>
       <use xlink:href="#m18ca2e86dd" x="275.211499" y="372.2832" style="stroke: #000000; stroke-width: 0.8"/>
      </g>
     </g>
    </g>
    <g id="xtick_16">
     <g id="line2d_30">
      <g>
       <use xlink:href="#m18ca2e86dd" x="369.642525" y="372.2832" style="stroke: #000000; stroke-width: 0.8"/>
      </g>
     </g>
    </g>
    <g id="xtick_17">
     <g id="line2d_31">
      <g>
       <use xlink:href="#m18ca2e86dd" x="464.073551" y="372.2832" style="stroke: #000000; stroke-width: 0.8"/>
      </g>
     </g>
    </g>
    <g id="xtick_18">
     <g id="line2d_32">
      <g>
       <use xlink:href="#m18ca2e86dd" x="558.504577" y="372.2832" style="stroke: #000000; stroke-width: 0.8"/>
      </g>
     </g>
    </g>
   </g>
   <g id="matplotlib.axis_6">
    <g id="text_14">
     <!-- Spikes -->
     <g transform="translate(57.606313 363.263746) rotate(-90) scale(0.1 -0.1)">
      <defs>
       <path id="DejaVuSans-6b" d="M 581 4863 
L 1159 4863 
L 1159 1991 
L 2875 3500 
L 3609 3500 
L 1753 1863 
L 3688 0 
L 2938 0 
L 1159 1709 
L 1159 0 
L 581 0 
L 581 4863 
z
" transform="scale(0.015625)"/>
      </defs>
      <use xlink:href="#DejaVuSans-53"/>
      <use xlink:href="#DejaVuSans-70" x="63.476562"/>
      <use xlink:href="#DejaVuSans-69" x="126.953125"/>
      <use xlink:href="#DejaVuSans-6b" x="154.736328"/>
      <use xlink:href="#DejaVuSans-65" x="209.021484"/>
      <use xlink:href="#DejaVuSans-73" x="270.544922"/>
     </g>
    </g>
   </g>
   <g id="patch_15">
    <path d="M 63.686 372.2832 
L 63.686 321.978667 
" style="fill: none; stroke: #000000; stroke-width: 0.8; stroke-linejoin: miter; stroke-linecap: square"/>
   </g>
   <g id="patch_16">
    <path d="M 562.281818 372.2832 
L 562.281818 321.978667 
" style="fill: none; stroke: #000000; stroke-width: 0.8; stroke-linejoin: miter; stroke-linecap: square"/>
   </g>
   <g id="patch_17">
    <path d="M 63.686 372.2832 
L 562.281818 372.2832 
" style="fill: none; stroke: #000000; stroke-width: 0.8; stroke-linejoin: miter; stroke-linecap: square"/>
   </g>
   <g id="patch_18">
    <path d="M 63.686 321.978667 
L 562.281818 321.978667 
" style="fill: none; stroke: #000000; stroke-width: 0.8; stroke-linejoin: miter; stroke-linecap: square"/>
   </g>
   <g id="legend_3">
    <g id="patch_19">
     <path d="M 466.741193 359.334917 
L 555.281818 359.334917 
Q 557.281818 359.334917 557.281818 357.334917 
L 557.281818 328.978667 
Q 557.281818 326.978667 555.281818 326.978667 
L 466.741193 326.978667 
Q 464.741193 326.978667 464.741193 328.978667 
L 464.741193 357.334917 
Q 464.741193 359.334917 466.741193 359.334917 
z
" style="fill: #ffffff; opacity: 0.8; stroke: #cccccc; stroke-linejoin: miter"/>
    </g>
    <g id="PathCollection_3">
     <g>
      <use xlink:href="#m443f560231" x="478.741193" y="335.952104" style="fill: #0000ff; stroke: #0000ff; stroke-width: 1.5"/>
     </g>
    </g>
    <g id="text_15">
     <!-- GPU Spikes -->
     <g transform="translate(496.741193 338.577104) scale(0.1 -0.1)">
      <use xlink:href="#DejaVuSans-47"/>
      <use xlink:href="#DejaVuSans-50" x="77.490234"/>
      <use xlink:href="#DejaVuSans-55" x="137.792969"/>
      <use xlink:href="#DejaVuSans-20" x="210.986328"/>
      <use xlink:href="#DejaVuSans-53" x="242.773438"/>
      <use xlink:href="#DejaVuSans-70" x="306.25"/>
      <use xlink:href="#DejaVuSans-69" x="369.726562"/>
      <use xlink:href="#DejaVuSans-6b" x="397.509766"/>
      <use xlink:href="#DejaVuSans-65" x="451.794922"/>
      <use xlink:href="#DejaVuSans-73" x="513.318359"/>
     </g>
    </g>
    <g id="PathCollection_4">
     <g>
      <use xlink:href="#mfea3ed1908" x="478.741193" y="350.630229" style="fill: #ff0000; stroke: #ff0000; stroke-width: 1.5"/>
     </g>
    </g>
    <g id="text_16">
     <!-- NPU Spikes -->
     <g transform="translate(496.741193 353.255229) scale(0.1 -0.1)">
      <use xlink:href="#DejaVuSans-4e"/>
      <use xlink:href="#DejaVuSans-50" x="74.804688"/>
      <use xlink:href="#DejaVuSans-55" x="135.107422"/>
      <use xlink:href="#DejaVuSans-20" x="208.300781"/>
      <use xlink:href="#DejaVuSans-53" x="240.087891"/>
      <use xlink:href="#DejaVuSans-70" x="303.564453"/>
      <use xlink:href="#DejaVuSans-69" x="367.041016"/>
      <use xlink:href="#DejaVuSans-6b" x="394.824219"/>
      <use xlink:href="#DejaVuSans-65" x="449.109375"/>
      <use xlink:href="#DejaVuSans-73" x="510.632812"/>
     </g>
    </g>
   </g>
  </g>
  <g id="axes_4">
   <g id="patch_20">
    <path d="M 63.686 462.04 
L 562.281818 462.04 
L 562.281818 386.5832 
L 63.686 386.5832 
z
" style="fill: #ffffff"/>
   </g>
   <g id="matplotlib.axis_7">
    <g id="xtick_19">
     <g id="line2d_33">
      <g>
       <use xlink:href="#m18ca2e86dd" x="86.349446" y="462.04" style="stroke: #000000; stroke-width: 0.8"/>
      </g>
     </g>
     <g id="text_17">
      <!-- 0 -->
      <g transform="translate(83.168196 476.638438) scale(0.1 -0.1)">
       <use xlink:href="#DejaVuSans-30"/>
      </g>
     </g>
    </g>
    <g id="xtick_20">
     <g id="line2d_34">
      <g>
       <use xlink:href="#m18ca2e86dd" x="180.780472" y="462.04" style="stroke: #000000; stroke-width: 0.8"/>
      </g>
     </g>
     <g id="text_18">
      <!-- 5 -->
      <g transform="translate(177.599222 476.638438) scale(0.1 -0.1)">
       <use xlink:href="#DejaVuSans-35"/>
      </g>
     </g>
    </g>
    <g id="xtick_21">
     <g id="line2d_35">
      <g>
       <use xlink:href="#m18ca2e86dd" x="275.211499" y="462.04" style="stroke: #000000; stroke-width: 0.8"/>
      </g>
     </g>
     <g id="text_19">
      <!-- 10 -->
      <g transform="translate(268.848999 476.638438) scale(0.1 -0.1)">
       <use xlink:href="#DejaVuSans-31"/>
       <use xlink:href="#DejaVuSans-30" x="63.623047"/>
      </g>
     </g>
    </g>
    <g id="xtick_22">
     <g id="line2d_36">
      <g>
       <use xlink:href="#m18ca2e86dd" x="369.642525" y="462.04" style="stroke: #000000; stroke-width: 0.8"/>
      </g>
     </g>
     <g id="text_20">
      <!-- 15 -->
      <g transform="translate(363.280025 476.638438) scale(0.1 -0.1)">
       <use xlink:href="#DejaVuSans-31"/>
       <use xlink:href="#DejaVuSans-35" x="63.623047"/>
      </g>
     </g>
    </g>
    <g id="xtick_23">
     <g id="line2d_37">
      <g>
       <use xlink:href="#m18ca2e86dd" x="464.073551" y="462.04" style="stroke: #000000; stroke-width: 0.8"/>
      </g>
     </g>
     <g id="text_21">
      <!-- 20 -->
      <g transform="translate(457.711051 476.638438) scale(0.1 -0.1)">
       <use xlink:href="#DejaVuSans-32"/>
       <use xlink:href="#DejaVuSans-30" x="63.623047"/>
      </g>
     </g>
    </g>
    <g id="xtick_24">
     <g id="line2d_38">
      <g>
       <use xlink:href="#m18ca2e86dd" x="558.504577" y="462.04" style="stroke: #000000; stroke-width: 0.8"/>
      </g>
     </g>
     <g id="text_22">
      <!-- 25 -->
      <g transform="translate(552.142077 476.638438) scale(0.1 -0.1)">
       <use xlink:href="#DejaVuSans-32"/>
       <use xlink:href="#DejaVuSans-35" x="63.623047"/>
      </g>
     </g>
    </g>
    <g id="text_23">
     <!-- Time step -->
     <g transform="translate(288.345628 490.316563) scale(0.1 -0.1)">
      <use xlink:href="#DejaVuSans-54"/>
      <use xlink:href="#DejaVuSans-69" x="57.958984"/>
      <use xlink:href="#DejaVuSans-6d" x="85.742188"/>
      <use xlink:href="#DejaVuSans-65" x="183.154297"/>
      <use xlink:href="#DejaVuSans-20" x="244.677734"/>
      <use xlink:href="#DejaVuSans-73" x="276.464844"/>
      <use xlink:href="#DejaVuSans-74" x="328.564453"/>
      <use xlink:href="#DejaVuSans-65" x="367.773438"/>
      <use xlink:href="#DejaVuSans-70" x="429.296875"/>
     </g>
    </g>
   </g>
   <g id="matplotlib.axis_8">
    <g id="ytick_8">
     <g id="line2d_39">
      <g>
       <use xlink:href="#m569693dc71" x="63.686" y="458.610145" style="stroke: #000000; stroke-width: 0.8"/>
      </g>
     </g>
     <g id="text_24">
      <!-- 0.0 -->
      <g transform="translate(40.782875 462.409364) scale(0.1 -0.1)">
       <defs>
        <path id="DejaVuSans-2e" d="M 684 794 
L 1344 794 
L 1344 0 
L 684 0 
L 684 794 
z
" transform="scale(0.015625)"/>
       </defs>
       <use xlink:href="#DejaVuSans-30"/>
       <use xlink:href="#DejaVuSans-2e" x="63.623047"/>
       <use xlink:href="#DejaVuSans-30" x="95.410156"/>
      </g>
     </g>
    </g>
    <g id="ytick_9">
     <g id="line2d_40">
      <g>
       <use xlink:href="#m569693dc71" x="63.686" y="418.87691" style="stroke: #000000; stroke-width: 0.8"/>
      </g>
     </g>
     <g id="text_25">
      <!-- 0.1 -->
      <g transform="translate(40.782875 422.676129) scale(0.1 -0.1)">
       <use xlink:href="#DejaVuSans-30"/>
       <use xlink:href="#DejaVuSans-2e" x="63.623047"/>
       <use xlink:href="#DejaVuSans-31" x="95.410156"/>
      </g>
     </g>
    </g>
    <g id="text_26">
     <!-- NPU vs GPU Membrane -->
     <g transform="translate(23.505375 482.406131) rotate(-90) scale(0.1 -0.1)">
      <use xlink:href="#DejaVuSans-4e"/>
      <use xlink:href="#DejaVuSans-50" x="74.804688"/>
      <use xlink:href="#DejaVuSans-55" x="135.107422"/>
      <use xlink:href="#DejaVuSans-20" x="208.300781"/>
      <use xlink:href="#DejaVuSans-76" x="240.087891"/>
      <use xlink:href="#DejaVuSans-73" x="299.267578"/>
      <use xlink:href="#DejaVuSans-20" x="351.367188"/>
      <use xlink:href="#DejaVuSans-47" x="383.154297"/>
      <use xlink:href="#DejaVuSans-50" x="460.644531"/>
      <use xlink:href="#DejaVuSans-55" x="520.947266"/>
      <use xlink:href="#DejaVuSans-20" x="594.140625"/>
      <use xlink:href="#DejaVuSans-4d" x="625.927734"/>
      <use xlink:href="#DejaVuSans-65" x="712.207031"/>
      <use xlink:href="#DejaVuSans-6d" x="773.730469"/>
      <use xlink:href="#DejaVuSans-62" x="871.142578"/>
      <use xlink:href="#DejaVuSans-72" x="934.619141"/>
      <use xlink:href="#DejaVuSans-61" x="975.732422"/>
      <use xlink:href="#DejaVuSans-6e" x="1037.011719"/>
      <use xlink:href="#DejaVuSans-65" x="1100.390625"/>
     </g>
     <!-- Potential Difference -->
     <g transform="translate(34.703187 473.651444) rotate(-90) scale(0.1 -0.1)">
      <defs>
       <path id="DejaVuSans-44" d="M 1259 4147 
L 1259 519 
L 2022 519 
Q 2988 519 3436 956 
Q 3884 1394 3884 2338 
Q 3884 3275 3436 3711 
Q 2988 4147 2022 4147 
L 1259 4147 
z
M 628 4666 
L 1925 4666 
Q 3281 4666 3915 4102 
Q 4550 3538 4550 2338 
Q 4550 1131 3912 565 
Q 3275 0 1925 0 
L 628 0 
L 628 4666 
z
" transform="scale(0.015625)"/>
       <path id="DejaVuSans-66" d="M 2375 4863 
L 2375 4384 
L 1825 4384 
Q 1516 4384 1395 4259 
Q 1275 4134 1275 3809 
L 1275 3500 
L 2222 3500 
L 2222 3053 
L 1275 3053 
L 1275 0 
L 697 0 
L 697 3053 
L 147 3053 
L 147 3500 
L 697 3500 
L 697 3744 
Q 697 4328 969 4595 
Q 1241 4863 1831 4863 
L 2375 4863 
z
" transform="scale(0.015625)"/>
      </defs>
      <use xlink:href="#DejaVuSans-50"/>
      <use xlink:href="#DejaVuSans-6f" x="56.677734"/>
      <use xlink:href="#DejaVuSans-74" x="117.859375"/>
      <use xlink:href="#DejaVuSans-65" x="157.068359"/>
      <use xlink:href="#DejaVuSans-6e" x="218.591797"/>
      <use xlink:href="#DejaVuSans-74" x="281.970703"/>
      <use xlink:href="#DejaVuSans-69" x="321.179688"/>
      <use xlink:href="#DejaVuSans-61" x="348.962891"/>
      <use xlink:href="#DejaVuSans-6c" x="410.242188"/>
      <use xlink:href="#DejaVuSans-20" x="438.025391"/>
      <use xlink:href="#DejaVuSans-44" x="469.8125"/>
      <use xlink:href="#DejaVuSans-69" x="546.814453"/>
      <use xlink:href="#DejaVuSans-66" x="574.597656"/>
      <use xlink:href="#DejaVuSans-66" x="609.802734"/>
      <use xlink:href="#DejaVuSans-65" x="645.007812"/>
      <use xlink:href="#DejaVuSans-72" x="706.53125"/>
      <use xlink:href="#DejaVuSans-65" x="745.394531"/>
      <use xlink:href="#DejaVuSans-6e" x="806.917969"/>
      <use xlink:href="#DejaVuSans-63" x="870.296875"/>
      <use xlink:href="#DejaVuSans-65" x="925.277344"/>
     </g>
    </g>
   </g>
   <g id="line2d_41">
    <path d="M 86.349446 451.887131 
L 105.235652 453.196171 
L 124.121857 434.679524 
L 143.008062 440.514334 
L 161.894267 422.028297 
L 180.780472 393.978708 
L 199.666678 397.645526 
L 218.552883 399.975239 
L 237.439088 410.738013 
L 256.325293 390.013055 
L 275.211499 395.68983 
L 294.097704 403.214387 
L 312.983909 414.06058 
L 331.870114 398.141907 
L 350.75632 426.252478 
L 369.642525 424.27433 
L 388.52873 406.776942 
L 407.414935 409.875663 
L 426.30114 418.06557 
L 445.187346 414.136411 
L 464.073551 394.051172 
L 482.959756 400.965403 
L 501.845961 398.414558 
L 520.732167 391.763966 
L 539.618372 402.4709 
" clip-path="url(#pce562574ee)" style="fill: none; stroke-dasharray: 5.55,2.4; stroke-dashoffset: 0; stroke: #000000; stroke-width: 1.5"/>
    <defs>
     <path id="m204413f28c" d="M 0 1.5 
C 0.397805 1.5 0.77937 1.341951 1.06066 1.06066 
C 1.341951 0.77937 1.5 0.397805 1.5 0 
C 1.5 -0.397805 1.341951 -0.77937 1.06066 -1.06066 
C 0.77937 -1.341951 0.397805 -1.5 0 -1.5 
C -0.397805 -1.5 -0.77937 -1.341951 -1.06066 -1.06066 
C -1.341951 -0.77937 -1.5 -0.397805 -1.5 0 
C -1.5 0.397805 -1.341951 0.77937 -1.06066 1.06066 
C -0.77937 1.341951 -0.397805 1.5 0 1.5 
z
" style="stroke: #000000"/>
    </defs>
    <g clip-path="url(#pce562574ee)">
     <use xlink:href="#m204413f28c" x="86.349446" y="451.887131" style="stroke: #000000"/>
     <use xlink:href="#m204413f28c" x="105.235652" y="453.196171" style="stroke: #000000"/>
     <use xlink:href="#m204413f28c" x="124.121857" y="434.679524" style="stroke: #000000"/>
     <use xlink:href="#m204413f28c" x="143.008062" y="440.514334" style="stroke: #000000"/>
     <use xlink:href="#m204413f28c" x="161.894267" y="422.028297" style="stroke: #000000"/>
     <use xlink:href="#m204413f28c" x="180.780472" y="393.978708" style="stroke: #000000"/>
     <use xlink:href="#m204413f28c" x="199.666678" y="397.645526" style="stroke: #000000"/>
     <use xlink:href="#m204413f28c" x="218.552883" y="399.975239" style="stroke: #000000"/>
     <use xlink:href="#m204413f28c" x="237.439088" y="410.738013" style="stroke: #000000"/>
     <use xlink:href="#m204413f28c" x="256.325293" y="390.013055" style="stroke: #000000"/>
     <use xlink:href="#m204413f28c" x="275.211499" y="395.68983" style="stroke: #000000"/>
     <use xlink:href="#m204413f28c" x="294.097704" y="403.214387" style="stroke: #000000"/>
     <use xlink:href="#m204413f28c" x="312.983909" y="414.06058" style="stroke: #000000"/>
     <use xlink:href="#m204413f28c" x="331.870114" y="398.141907" style="stroke: #000000"/>
     <use xlink:href="#m204413f28c" x="350.75632" y="426.252478" style="stroke: #000000"/>
     <use xlink:href="#m204413f28c" x="369.642525" y="424.27433" style="stroke: #000000"/>
     <use xlink:href="#m204413f28c" x="388.52873" y="406.776942" style="stroke: #000000"/>
     <use xlink:href="#m204413f28c" x="407.414935" y="409.875663" style="stroke: #000000"/>
     <use xlink:href="#m204413f28c" x="426.30114" y="418.06557" style="stroke: #000000"/>
     <use xlink:href="#m204413f28c" x="445.187346" y="414.136411" style="stroke: #000000"/>
     <use xlink:href="#m204413f28c" x="464.073551" y="394.051172" style="stroke: #000000"/>
     <use xlink:href="#m204413f28c" x="482.959756" y="400.965403" style="stroke: #000000"/>
     <use xlink:href="#m204413f28c" x="501.845961" y="398.414558" style="stroke: #000000"/>
     <use xlink:href="#m204413f28c" x="520.732167" y="391.763966" style="stroke: #000000"/>
     <use xlink:href="#m204413f28c" x="539.618372" y="402.4709" style="stroke: #000000"/>
    </g>
   </g>
   <g id="line2d_42">
    <path d="M 63.686 458.610145 
L 562.281818 458.610145 
" clip-path="url(#pce562574ee)" style="fill: none; stroke: #000000; stroke-opacity: 0.5; stroke-linecap: square"/>
   </g>
   <g id="patch_21">
    <path d="M 63.686 462.04 
L 63.686 386.5832 
" style="fill: none; stroke: #000000; stroke-width: 0.8; stroke-linejoin: miter; stroke-linecap: square"/>
   </g>
   <g id="patch_22">
    <path d="M 562.281818 462.04 
L 562.281818 386.5832 
" style="fill: none; stroke: #000000; stroke-width: 0.8; stroke-linejoin: miter; stroke-linecap: square"/>
   </g>
   <g id="patch_23">
    <path d="M 63.686 462.04 
L 562.281818 462.04 
" style="fill: none; stroke: #000000; stroke-width: 0.8; stroke-linejoin: miter; stroke-linecap: square"/>
   </g>
   <g id="patch_24">
    <path d="M 63.686 386.5832 
L 562.281818 386.5832 
" style="fill: none; stroke: #000000; stroke-width: 0.8; stroke-linejoin: miter; stroke-linecap: square"/>
   </g>
  </g>
 </g>
 <defs>
  <clipPath id="p542e763cf7">
   <rect x="63.686" y="41.856" width="498.595818" height="125.761333"/>
  </clipPath>
  <clipPath id="p46aca78ad3">
   <rect x="63.686" y="181.917333" width="498.595818" height="125.761333"/>
  </clipPath>
  <clipPath id="p6da7c99385">
   <rect x="63.686" y="321.978667" width="498.595818" height="50.304533"/>
  </clipPath>
  <clipPath id="pce562574ee">
   <rect x="63.686" y="386.5832" width="498.595818" height="75.4568"/>
  </clipPath>
 </defs>
</svg>
