<?xml version="1.0" encoding="utf-8" standalone="no"?>
<!DOCTYPE svg PUBLIC "-//W3C//DTD SVG 1.1//EN"
  "http://www.w3.org/Graphics/SVG/1.1/DTD/svg11.dtd">
<svg xmlns:xlink="http://www.w3.org/1999/xlink" width="576pt" height="432pt" viewBox="0 0 576 432" xmlns="http://www.w3.org/2000/svg" version="1.1">
 <metadata>
  <rdf:RDF xmlns:dc="http://purl.org/dc/elements/1.1/" xmlns:cc="http://creativecommons.org/ns#" xmlns:rdf="http://www.w3.org/1999/02/22-rdf-syntax-ns#">
   <cc:Work>
    <dc:type rdf:resource="http://purl.org/dc/dcmitype/StillImage"/>
    <dc:date>2025-08-19T17:25:40.927446</dc:date>
    <dc:format>image/svg+xml</dc:format>
    <dc:creator>
     <cc:Agent>
      <dc:title>Matplotlib v3.9.2, https://matplotlib.org/</dc:title>
     </cc:Agent>
    </dc:creator>
   </cc:Work>
  </rdf:RDF>
 </metadata>
 <defs>
  <style type="text/css">*{stroke-linejoin: round; stroke-linecap: butt}</style>
 </defs>
 <g id="figure_1">
  <g id="patch_1">
   <path d="M 0 432 
L 576 432 
L 576 0 
L 0 0 
z
" style="fill: #ffffff"/>
  </g>
  <g id="axes_1">
   <g id="patch_2">
    <path d="M 60.32 390.04 
L 550.570909 390.04 
L 550.570909 26.88 
L 60.32 26.88 
z
" style="fill: #ffffff"/>
   </g>
   <g id="matplotlib.axis_1">
    <g id="xtick_1">
     <g id="line2d_1">
      <path d="M 152.975076 390.04 
L 152.975076 26.88 
" clip-path="url(#p3d972410dc)" style="fill: none; stroke: #b0b0b0; stroke-width: 0.8; stroke-linecap: square"/>
     </g>
     <g id="line2d_2">
      <defs>
       <path id="mf57e1b1431" d="M 0 0 
L 0 3.5 
" style="stroke: #000000; stroke-width: 0.8"/>
      </defs>
      <g>
       <use xlink:href="#mf57e1b1431" x="152.975076" y="390.04" style="stroke: #000000; stroke-width: 0.8"/>
      </g>
     </g>
     <g id="text_1">
      <!-- 20 -->
      <g transform="translate(146.612576 404.638438) scale(0.1 -0.1)">
       <defs>
        <path id="DejaVuSans-32" d="M 1228 531 
L 3431 531 
L 3431 0 
L 469 0 
L 469 531 
Q 828 903 1448 1529 
Q 2069 2156 2228 2338 
Q 2531 2678 2651 2914 
Q 2772 3150 2772 3378 
Q 2772 3750 2511 3984 
Q 2250 4219 1831 4219 
Q 1534 4219 1204 4116 
Q 875 4013 500 3803 
L 500 4441 
Q 881 4594 1212 4672 
Q 1544 4750 1819 4750 
Q 2544 4750 2975 4387 
Q 3406 4025 3406 3419 
Q 3406 3131 3298 2873 
Q 3191 2616 2906 2266 
Q 2828 2175 2409 1742 
Q 1991 1309 1228 531 
z
" transform="scale(0.015625)"/>
        <path id="DejaVuSans-30" d="M 2034 4250 
Q 1547 4250 1301 3770 
Q 1056 3291 1056 2328 
Q 1056 1369 1301 889 
Q 1547 409 2034 409 
Q 2525 409 2770 889 
Q 3016 1369 3016 2328 
Q 3016 3291 2770 3770 
Q 2525 4250 2034 4250 
z
M 2034 4750 
Q 2819 4750 3233 4129 
Q 3647 3509 3647 2328 
Q 3647 1150 3233 529 
Q 2819 -91 2034 -91 
Q 1250 -91 836 529 
Q 422 1150 422 2328 
Q 422 3509 836 4129 
Q 1250 4750 2034 4750 
z
" transform="scale(0.015625)"/>
       </defs>
       <use xlink:href="#DejaVuSans-32"/>
       <use xlink:href="#DejaVuSans-30" x="63.623047"/>
      </g>
     </g>
    </g>
    <g id="xtick_2">
     <g id="line2d_3">
      <path d="M 246.803001 390.04 
L 246.803001 26.88 
" clip-path="url(#p3d972410dc)" style="fill: none; stroke: #b0b0b0; stroke-width: 0.8; stroke-linecap: square"/>
     </g>
     <g id="line2d_4">
      <g>
       <use xlink:href="#mf57e1b1431" x="246.803001" y="390.04" style="stroke: #000000; stroke-width: 0.8"/>
      </g>
     </g>
     <g id="text_2">
      <!-- 40 -->
      <g transform="translate(240.440501 404.638438) scale(0.1 -0.1)">
       <defs>
        <path id="DejaVuSans-34" d="M 2419 4116 
L 825 1625 
L 2419 1625 
L 2419 4116 
z
M 2253 4666 
L 3047 4666 
L 3047 1625 
L 3713 1625 
L 3713 1100 
L 3047 1100 
L 3047 0 
L 2419 0 
L 2419 1100 
L 313 1100 
L 313 1709 
L 2253 4666 
z
" transform="scale(0.015625)"/>
       </defs>
       <use xlink:href="#DejaVuSans-34"/>
       <use xlink:href="#DejaVuSans-30" x="63.623047"/>
      </g>
     </g>
    </g>
    <g id="xtick_3">
     <g id="line2d_5">
      <path d="M 340.630926 390.04 
L 340.630926 26.88 
" clip-path="url(#p3d972410dc)" style="fill: none; stroke: #b0b0b0; stroke-width: 0.8; stroke-linecap: square"/>
     </g>
     <g id="line2d_6">
      <g>
       <use xlink:href="#mf57e1b1431" x="340.630926" y="390.04" style="stroke: #000000; stroke-width: 0.8"/>
      </g>
     </g>
     <g id="text_3">
      <!-- 60 -->
      <g transform="translate(334.268426 404.638438) scale(0.1 -0.1)">
       <defs>
        <path id="DejaVuSans-36" d="M 2113 2584 
Q 1688 2584 1439 2293 
Q 1191 2003 1191 1497 
Q 1191 994 1439 701 
Q 1688 409 2113 409 
Q 2538 409 2786 701 
Q 3034 994 3034 1497 
Q 3034 2003 2786 2293 
Q 2538 2584 2113 2584 
z
M 3366 4563 
L 3366 3988 
Q 3128 4100 2886 4159 
Q 2644 4219 2406 4219 
Q 1781 4219 1451 3797 
Q 1122 3375 1075 2522 
Q 1259 2794 1537 2939 
Q 1816 3084 2150 3084 
Q 2853 3084 3261 2657 
Q 3669 2231 3669 1497 
Q 3669 778 3244 343 
Q 2819 -91 2113 -91 
Q 1303 -91 875 529 
Q 447 1150 447 2328 
Q 447 3434 972 4092 
Q 1497 4750 2381 4750 
Q 2619 4750 2861 4703 
Q 3103 4656 3366 4563 
z
" transform="scale(0.015625)"/>
       </defs>
       <use xlink:href="#DejaVuSans-36"/>
       <use xlink:href="#DejaVuSans-30" x="63.623047"/>
      </g>
     </g>
    </g>
    <g id="xtick_4">
     <g id="line2d_7">
      <path d="M 434.458852 390.04 
L 434.458852 26.88 
" clip-path="url(#p3d972410dc)" style="fill: none; stroke: #b0b0b0; stroke-width: 0.8; stroke-linecap: square"/>
     </g>
     <g id="line2d_8">
      <g>
       <use xlink:href="#mf57e1b1431" x="434.458852" y="390.04" style="stroke: #000000; stroke-width: 0.8"/>
      </g>
     </g>
     <g id="text_4">
      <!-- 80 -->
      <g transform="translate(428.096352 404.638438) scale(0.1 -0.1)">
       <defs>
        <path id="DejaVuSans-38" d="M 2034 2216 
Q 1584 2216 1326 1975 
Q 1069 1734 1069 1313 
Q 1069 891 1326 650 
Q 1584 409 2034 409 
Q 2484 409 2743 651 
Q 3003 894 3003 1313 
Q 3003 1734 2745 1975 
Q 2488 2216 2034 2216 
z
M 1403 2484 
Q 997 2584 770 2862 
Q 544 3141 544 3541 
Q 544 4100 942 4425 
Q 1341 4750 2034 4750 
Q 2731 4750 3128 4425 
Q 3525 4100 3525 3541 
Q 3525 3141 3298 2862 
Q 3072 2584 2669 2484 
Q 3125 2378 3379 2068 
Q 3634 1759 3634 1313 
Q 3634 634 3220 271 
Q 2806 -91 2034 -91 
Q 1263 -91 848 271 
Q 434 634 434 1313 
Q 434 1759 690 2068 
Q 947 2378 1403 2484 
z
M 1172 3481 
Q 1172 3119 1398 2916 
Q 1625 2713 2034 2713 
Q 2441 2713 2670 2916 
Q 2900 3119 2900 3481 
Q 2900 3844 2670 4047 
Q 2441 4250 2034 4250 
Q 1625 4250 1398 4047 
Q 1172 3844 1172 3481 
z
" transform="scale(0.015625)"/>
       </defs>
       <use xlink:href="#DejaVuSans-38"/>
       <use xlink:href="#DejaVuSans-30" x="63.623047"/>
      </g>
     </g>
    </g>
    <g id="xtick_5">
     <g id="line2d_9">
      <path d="M 528.286777 390.04 
L 528.286777 26.88 
" clip-path="url(#p3d972410dc)" style="fill: none; stroke: #b0b0b0; stroke-width: 0.8; stroke-linecap: square"/>
     </g>
     <g id="line2d_10">
      <g>
       <use xlink:href="#mf57e1b1431" x="528.286777" y="390.04" style="stroke: #000000; stroke-width: 0.8"/>
      </g>
     </g>
     <g id="text_5">
      <!-- 100 -->
      <g transform="translate(518.743027 404.638438) scale(0.1 -0.1)">
       <defs>
        <path id="DejaVuSans-31" d="M 794 531 
L 1825 531 
L 1825 4091 
L 703 3866 
L 703 4441 
L 1819 4666 
L 2450 4666 
L 2450 531 
L 3481 531 
L 3481 0 
L 794 0 
L 794 531 
z
" transform="scale(0.015625)"/>
       </defs>
       <use xlink:href="#DejaVuSans-31"/>
       <use xlink:href="#DejaVuSans-30" x="63.623047"/>
       <use xlink:href="#DejaVuSans-30" x="127.246094"/>
      </g>
     </g>
    </g>
    <g id="text_6">
     <!-- Number of Hidden Layers (48 neurons in each) -->
     <g transform="translate(188.057173 418.316562) scale(0.1 -0.1)">
      <defs>
       <path id="DejaVuSans-4e" d="M 628 4666 
L 1478 4666 
L 3547 763 
L 3547 4666 
L 4159 4666 
L 4159 0 
L 3309 0 
L 1241 3903 
L 1241 0 
L 628 0 
L 628 4666 
z
" transform="scale(0.015625)"/>
       <path id="DejaVuSans-75" d="M 544 1381 
L 544 3500 
L 1119 3500 
L 1119 1403 
Q 1119 906 1312 657 
Q 1506 409 1894 409 
Q 2359 409 2629 706 
Q 2900 1003 2900 1516 
L 2900 3500 
L 3475 3500 
L 3475 0 
L 2900 0 
L 2900 538 
Q 2691 219 2414 64 
Q 2138 -91 1772 -91 
Q 1169 -91 856 284 
Q 544 659 544 1381 
z
M 1991 3584 
L 1991 3584 
z
" transform="scale(0.015625)"/>
       <path id="DejaVuSans-6d" d="M 3328 2828 
Q 3544 3216 3844 3400 
Q 4144 3584 4550 3584 
Q 5097 3584 5394 3201 
Q 5691 2819 5691 2113 
L 5691 0 
L 5113 0 
L 5113 2094 
Q 5113 2597 4934 2840 
Q 4756 3084 4391 3084 
Q 3944 3084 3684 2787 
Q 3425 2491 3425 1978 
L 3425 0 
L 2847 0 
L 2847 2094 
Q 2847 2600 2669 2842 
Q 2491 3084 2119 3084 
Q 1678 3084 1418 2786 
Q 1159 2488 1159 1978 
L 1159 0 
L 581 0 
L 581 3500 
L 1159 3500 
L 1159 2956 
Q 1356 3278 1631 3431 
Q 1906 3584 2284 3584 
Q 2666 3584 2933 3390 
Q 3200 3197 3328 2828 
z
" transform="scale(0.015625)"/>
       <path id="DejaVuSans-62" d="M 3116 1747 
Q 3116 2381 2855 2742 
Q 2594 3103 2138 3103 
Q 1681 3103 1420 2742 
Q 1159 2381 1159 1747 
Q 1159 1113 1420 752 
Q 1681 391 2138 391 
Q 2594 391 2855 752 
Q 3116 1113 3116 1747 
z
M 1159 2969 
Q 1341 3281 1617 3432 
Q 1894 3584 2278 3584 
Q 2916 3584 3314 3078 
Q 3713 2572 3713 1747 
Q 3713 922 3314 415 
Q 2916 -91 2278 -91 
Q 1894 -91 1617 61 
Q 1341 213 1159 525 
L 1159 0 
L 581 0 
L 581 4863 
L 1159 4863 
L 1159 2969 
z
" transform="scale(0.015625)"/>
       <path id="DejaVuSans-65" d="M 3597 1894 
L 3597 1613 
L 953 1613 
Q 991 1019 1311 708 
Q 1631 397 2203 397 
Q 2534 397 2845 478 
Q 3156 559 3463 722 
L 3463 178 
Q 3153 47 2828 -22 
Q 2503 -91 2169 -91 
Q 1331 -91 842 396 
Q 353 884 353 1716 
Q 353 2575 817 3079 
Q 1281 3584 2069 3584 
Q 2775 3584 3186 3129 
Q 3597 2675 3597 1894 
z
M 3022 2063 
Q 3016 2534 2758 2815 
Q 2500 3097 2075 3097 
Q 1594 3097 1305 2825 
Q 1016 2553 972 2059 
L 3022 2063 
z
" transform="scale(0.015625)"/>
       <path id="DejaVuSans-72" d="M 2631 2963 
Q 2534 3019 2420 3045 
Q 2306 3072 2169 3072 
Q 1681 3072 1420 2755 
Q 1159 2438 1159 1844 
L 1159 0 
L 581 0 
L 581 3500 
L 1159 3500 
L 1159 2956 
Q 1341 3275 1631 3429 
Q 1922 3584 2338 3584 
Q 2397 3584 2469 3576 
Q 2541 3569 2628 3553 
L 2631 2963 
z
" transform="scale(0.015625)"/>
       <path id="DejaVuSans-20" transform="scale(0.015625)"/>
       <path id="DejaVuSans-6f" d="M 1959 3097 
Q 1497 3097 1228 2736 
Q 959 2375 959 1747 
Q 959 1119 1226 758 
Q 1494 397 1959 397 
Q 2419 397 2687 759 
Q 2956 1122 2956 1747 
Q 2956 2369 2687 2733 
Q 2419 3097 1959 3097 
z
M 1959 3584 
Q 2709 3584 3137 3096 
Q 3566 2609 3566 1747 
Q 3566 888 3137 398 
Q 2709 -91 1959 -91 
Q 1206 -91 779 398 
Q 353 888 353 1747 
Q 353 2609 779 3096 
Q 1206 3584 1959 3584 
z
" transform="scale(0.015625)"/>
       <path id="DejaVuSans-66" d="M 2375 4863 
L 2375 4384 
L 1825 4384 
Q 1516 4384 1395 4259 
Q 1275 4134 1275 3809 
L 1275 3500 
L 2222 3500 
L 2222 3053 
L 1275 3053 
L 1275 0 
L 697 0 
L 697 3053 
L 147 3053 
L 147 3500 
L 697 3500 
L 697 3744 
Q 697 4328 969 4595 
Q 1241 4863 1831 4863 
L 2375 4863 
z
" transform="scale(0.015625)"/>
       <path id="DejaVuSans-48" d="M 628 4666 
L 1259 4666 
L 1259 2753 
L 3553 2753 
L 3553 4666 
L 4184 4666 
L 4184 0 
L 3553 0 
L 3553 2222 
L 1259 2222 
L 1259 0 
L 628 0 
L 628 4666 
z
" transform="scale(0.015625)"/>
       <path id="DejaVuSans-69" d="M 603 3500 
L 1178 3500 
L 1178 0 
L 603 0 
L 603 3500 
z
M 603 4863 
L 1178 4863 
L 1178 4134 
L 603 4134 
L 603 4863 
z
" transform="scale(0.015625)"/>
       <path id="DejaVuSans-64" d="M 2906 2969 
L 2906 4863 
L 3481 4863 
L 3481 0 
L 2906 0 
L 2906 525 
Q 2725 213 2448 61 
Q 2172 -91 1784 -91 
Q 1150 -91 751 415 
Q 353 922 353 1747 
Q 353 2572 751 3078 
Q 1150 3584 1784 3584 
Q 2172 3584 2448 3432 
Q 2725 3281 2906 2969 
z
M 947 1747 
Q 947 1113 1208 752 
Q 1469 391 1925 391 
Q 2381 391 2643 752 
Q 2906 1113 2906 1747 
Q 2906 2381 2643 2742 
Q 2381 3103 1925 3103 
Q 1469 3103 1208 2742 
Q 947 2381 947 1747 
z
" transform="scale(0.015625)"/>
       <path id="DejaVuSans-6e" d="M 3513 2113 
L 3513 0 
L 2938 0 
L 2938 2094 
Q 2938 2591 2744 2837 
Q 2550 3084 2163 3084 
Q 1697 3084 1428 2787 
Q 1159 2491 1159 1978 
L 1159 0 
L 581 0 
L 581 3500 
L 1159 3500 
L 1159 2956 
Q 1366 3272 1645 3428 
Q 1925 3584 2291 3584 
Q 2894 3584 3203 3211 
Q 3513 2838 3513 2113 
z
" transform="scale(0.015625)"/>
       <path id="DejaVuSans-4c" d="M 628 4666 
L 1259 4666 
L 1259 531 
L 3531 531 
L 3531 0 
L 628 0 
L 628 4666 
z
" transform="scale(0.015625)"/>
       <path id="DejaVuSans-61" d="M 2194 1759 
Q 1497 1759 1228 1600 
Q 959 1441 959 1056 
Q 959 750 1161 570 
Q 1363 391 1709 391 
Q 2188 391 2477 730 
Q 2766 1069 2766 1631 
L 2766 1759 
L 2194 1759 
z
M 3341 1997 
L 3341 0 
L 2766 0 
L 2766 531 
Q 2569 213 2275 61 
Q 1981 -91 1556 -91 
Q 1019 -91 701 211 
Q 384 513 384 1019 
Q 384 1609 779 1909 
Q 1175 2209 1959 2209 
L 2766 2209 
L 2766 2266 
Q 2766 2663 2505 2880 
Q 2244 3097 1772 3097 
Q 1472 3097 1187 3025 
Q 903 2953 641 2809 
L 641 3341 
Q 956 3463 1253 3523 
Q 1550 3584 1831 3584 
Q 2591 3584 2966 3190 
Q 3341 2797 3341 1997 
z
" transform="scale(0.015625)"/>
       <path id="DejaVuSans-79" d="M 2059 -325 
Q 1816 -950 1584 -1140 
Q 1353 -1331 966 -1331 
L 506 -1331 
L 506 -850 
L 844 -850 
Q 1081 -850 1212 -737 
Q 1344 -625 1503 -206 
L 1606 56 
L 191 3500 
L 800 3500 
L 1894 763 
L 2988 3500 
L 3597 3500 
L 2059 -325 
z
" transform="scale(0.015625)"/>
       <path id="DejaVuSans-73" d="M 2834 3397 
L 2834 2853 
Q 2591 2978 2328 3040 
Q 2066 3103 1784 3103 
Q 1356 3103 1142 2972 
Q 928 2841 928 2578 
Q 928 2378 1081 2264 
Q 1234 2150 1697 2047 
L 1894 2003 
Q 2506 1872 2764 1633 
Q 3022 1394 3022 966 
Q 3022 478 2636 193 
Q 2250 -91 1575 -91 
Q 1294 -91 989 -36 
Q 684 19 347 128 
L 347 722 
Q 666 556 975 473 
Q 1284 391 1588 391 
Q 1994 391 2212 530 
Q 2431 669 2431 922 
Q 2431 1156 2273 1281 
Q 2116 1406 1581 1522 
L 1381 1569 
Q 847 1681 609 1914 
Q 372 2147 372 2553 
Q 372 3047 722 3315 
Q 1072 3584 1716 3584 
Q 2034 3584 2315 3537 
Q 2597 3491 2834 3397 
z
" transform="scale(0.015625)"/>
       <path id="DejaVuSans-28" d="M 1984 4856 
Q 1566 4138 1362 3434 
Q 1159 2731 1159 2009 
Q 1159 1288 1364 580 
Q 1569 -128 1984 -844 
L 1484 -844 
Q 1016 -109 783 600 
Q 550 1309 550 2009 
Q 550 2706 781 3412 
Q 1013 4119 1484 4856 
L 1984 4856 
z
" transform="scale(0.015625)"/>
       <path id="DejaVuSans-63" d="M 3122 3366 
L 3122 2828 
Q 2878 2963 2633 3030 
Q 2388 3097 2138 3097 
Q 1578 3097 1268 2742 
Q 959 2388 959 1747 
Q 959 1106 1268 751 
Q 1578 397 2138 397 
Q 2388 397 2633 464 
Q 2878 531 3122 666 
L 3122 134 
Q 2881 22 2623 -34 
Q 2366 -91 2075 -91 
Q 1284 -91 818 406 
Q 353 903 353 1747 
Q 353 2603 823 3093 
Q 1294 3584 2113 3584 
Q 2378 3584 2631 3529 
Q 2884 3475 3122 3366 
z
" transform="scale(0.015625)"/>
       <path id="DejaVuSans-68" d="M 3513 2113 
L 3513 0 
L 2938 0 
L 2938 2094 
Q 2938 2591 2744 2837 
Q 2550 3084 2163 3084 
Q 1697 3084 1428 2787 
Q 1159 2491 1159 1978 
L 1159 0 
L 581 0 
L 581 4863 
L 1159 4863 
L 1159 2956 
Q 1366 3272 1645 3428 
Q 1925 3584 2291 3584 
Q 2894 3584 3203 3211 
Q 3513 2838 3513 2113 
z
" transform="scale(0.015625)"/>
       <path id="DejaVuSans-29" d="M 513 4856 
L 1013 4856 
Q 1481 4119 1714 3412 
Q 1947 2706 1947 2009 
Q 1947 1309 1714 600 
Q 1481 -109 1013 -844 
L 513 -844 
Q 928 -128 1133 580 
Q 1338 1288 1338 2009 
Q 1338 2731 1133 3434 
Q 928 4138 513 4856 
z
" transform="scale(0.015625)"/>
      </defs>
      <use xlink:href="#DejaVuSans-4e"/>
      <use xlink:href="#DejaVuSans-75" x="74.804688"/>
      <use xlink:href="#DejaVuSans-6d" x="138.183594"/>
      <use xlink:href="#DejaVuSans-62" x="235.595703"/>
      <use xlink:href="#DejaVuSans-65" x="299.072266"/>
      <use xlink:href="#DejaVuSans-72" x="360.595703"/>
      <use xlink:href="#DejaVuSans-20" x="401.708984"/>
      <use xlink:href="#DejaVuSans-6f" x="433.496094"/>
      <use xlink:href="#DejaVuSans-66" x="494.677734"/>
      <use xlink:href="#DejaVuSans-20" x="529.882812"/>
      <use xlink:href="#DejaVuSans-48" x="561.669922"/>
      <use xlink:href="#DejaVuSans-69" x="636.865234"/>
      <use xlink:href="#DejaVuSans-64" x="664.648438"/>
      <use xlink:href="#DejaVuSans-64" x="728.125"/>
      <use xlink:href="#DejaVuSans-65" x="791.601562"/>
      <use xlink:href="#DejaVuSans-6e" x="853.125"/>
      <use xlink:href="#DejaVuSans-20" x="916.503906"/>
      <use xlink:href="#DejaVuSans-4c" x="948.291016"/>
      <use xlink:href="#DejaVuSans-61" x="1004.003906"/>
      <use xlink:href="#DejaVuSans-79" x="1065.283203"/>
      <use xlink:href="#DejaVuSans-65" x="1124.462891"/>
      <use xlink:href="#DejaVuSans-72" x="1185.986328"/>
      <use xlink:href="#DejaVuSans-73" x="1227.099609"/>
      <use xlink:href="#DejaVuSans-20" x="1279.199219"/>
      <use xlink:href="#DejaVuSans-28" x="1310.986328"/>
      <use xlink:href="#DejaVuSans-34" x="1350"/>
      <use xlink:href="#DejaVuSans-38" x="1413.623047"/>
      <use xlink:href="#DejaVuSans-20" x="1477.246094"/>
      <use xlink:href="#DejaVuSans-6e" x="1509.033203"/>
      <use xlink:href="#DejaVuSans-65" x="1572.412109"/>
      <use xlink:href="#DejaVuSans-75" x="1633.935547"/>
      <use xlink:href="#DejaVuSans-72" x="1697.314453"/>
      <use xlink:href="#DejaVuSans-6f" x="1736.177734"/>
      <use xlink:href="#DejaVuSans-6e" x="1797.359375"/>
      <use xlink:href="#DejaVuSans-73" x="1860.738281"/>
      <use xlink:href="#DejaVuSans-20" x="1912.837891"/>
      <use xlink:href="#DejaVuSans-69" x="1944.625"/>
      <use xlink:href="#DejaVuSans-6e" x="1972.408203"/>
      <use xlink:href="#DejaVuSans-20" x="2035.787109"/>
      <use xlink:href="#DejaVuSans-65" x="2067.574219"/>
      <use xlink:href="#DejaVuSans-61" x="2129.097656"/>
      <use xlink:href="#DejaVuSans-63" x="2190.376953"/>
      <use xlink:href="#DejaVuSans-68" x="2245.357422"/>
      <use xlink:href="#DejaVuSans-29" x="2308.736328"/>
     </g>
    </g>
   </g>
   <g id="matplotlib.axis_2">
    <g id="ytick_1">
     <g id="line2d_11">
      <path d="M 60.32 356.355553 
L 550.570909 356.355553 
" clip-path="url(#p3d972410dc)" style="fill: none; stroke: #b0b0b0; stroke-width: 0.8; stroke-linecap: square"/>
     </g>
     <g id="line2d_12">
      <defs>
       <path id="m040a121d16" d="M 0 0 
L -3.5 0 
" style="stroke: #000000; stroke-width: 0.8"/>
      </defs>
      <g>
       <use xlink:href="#m040a121d16" x="60.32" y="356.355553" style="stroke: #000000; stroke-width: 0.8"/>
      </g>
     </g>
     <g id="text_7">
      <!-- 90.0 -->
      <g transform="translate(31.054375 360.154772) scale(0.1 -0.1)">
       <defs>
        <path id="DejaVuSans-39" d="M 703 97 
L 703 672 
Q 941 559 1184 500 
Q 1428 441 1663 441 
Q 2288 441 2617 861 
Q 2947 1281 2994 2138 
Q 2813 1869 2534 1725 
Q 2256 1581 1919 1581 
Q 1219 1581 811 2004 
Q 403 2428 403 3163 
Q 403 3881 828 4315 
Q 1253 4750 1959 4750 
Q 2769 4750 3195 4129 
Q 3622 3509 3622 2328 
Q 3622 1225 3098 567 
Q 2575 -91 1691 -91 
Q 1453 -91 1209 -44 
Q 966 3 703 97 
z
M 1959 2075 
Q 2384 2075 2632 2365 
Q 2881 2656 2881 3163 
Q 2881 3666 2632 3958 
Q 2384 4250 1959 4250 
Q 1534 4250 1286 3958 
Q 1038 3666 1038 3163 
Q 1038 2656 1286 2365 
Q 1534 2075 1959 2075 
z
" transform="scale(0.015625)"/>
        <path id="DejaVuSans-2e" d="M 684 794 
L 1344 794 
L 1344 0 
L 684 0 
L 684 794 
z
" transform="scale(0.015625)"/>
       </defs>
       <use xlink:href="#DejaVuSans-39"/>
       <use xlink:href="#DejaVuSans-30" x="63.623047"/>
       <use xlink:href="#DejaVuSans-2e" x="127.246094"/>
       <use xlink:href="#DejaVuSans-30" x="159.033203"/>
      </g>
     </g>
    </g>
    <g id="ytick_2">
     <g id="line2d_13">
      <path d="M 60.32 308.64118 
L 550.570909 308.64118 
" clip-path="url(#p3d972410dc)" style="fill: none; stroke: #b0b0b0; stroke-width: 0.8; stroke-linecap: square"/>
     </g>
     <g id="line2d_14">
      <g>
       <use xlink:href="#m040a121d16" x="60.32" y="308.64118" style="stroke: #000000; stroke-width: 0.8"/>
      </g>
     </g>
     <g id="text_8">
      <!-- 92.5 -->
      <g transform="translate(31.054375 312.440398) scale(0.1 -0.1)">
       <defs>
        <path id="DejaVuSans-35" d="M 691 4666 
L 3169 4666 
L 3169 4134 
L 1269 4134 
L 1269 2991 
Q 1406 3038 1543 3061 
Q 1681 3084 1819 3084 
Q 2600 3084 3056 2656 
Q 3513 2228 3513 1497 
Q 3513 744 3044 326 
Q 2575 -91 1722 -91 
Q 1428 -91 1123 -41 
Q 819 9 494 109 
L 494 744 
Q 775 591 1075 516 
Q 1375 441 1709 441 
Q 2250 441 2565 725 
Q 2881 1009 2881 1497 
Q 2881 1984 2565 2268 
Q 2250 2553 1709 2553 
Q 1456 2553 1204 2497 
Q 953 2441 691 2322 
L 691 4666 
z
" transform="scale(0.015625)"/>
       </defs>
       <use xlink:href="#DejaVuSans-39"/>
       <use xlink:href="#DejaVuSans-32" x="63.623047"/>
       <use xlink:href="#DejaVuSans-2e" x="127.246094"/>
       <use xlink:href="#DejaVuSans-35" x="159.033203"/>
      </g>
     </g>
    </g>
    <g id="ytick_3">
     <g id="line2d_15">
      <path d="M 60.32 260.926806 
L 550.570909 260.926806 
" clip-path="url(#p3d972410dc)" style="fill: none; stroke: #b0b0b0; stroke-width: 0.8; stroke-linecap: square"/>
     </g>
     <g id="line2d_16">
      <g>
       <use xlink:href="#m040a121d16" x="60.32" y="260.926806" style="stroke: #000000; stroke-width: 0.8"/>
      </g>
     </g>
     <g id="text_9">
      <!-- 95.0 -->
      <g transform="translate(31.054375 264.726025) scale(0.1 -0.1)">
       <use xlink:href="#DejaVuSans-39"/>
       <use xlink:href="#DejaVuSans-35" x="63.623047"/>
       <use xlink:href="#DejaVuSans-2e" x="127.246094"/>
       <use xlink:href="#DejaVuSans-30" x="159.033203"/>
      </g>
     </g>
    </g>
    <g id="ytick_4">
     <g id="line2d_17">
      <path d="M 60.32 213.212433 
L 550.570909 213.212433 
" clip-path="url(#p3d972410dc)" style="fill: none; stroke: #b0b0b0; stroke-width: 0.8; stroke-linecap: square"/>
     </g>
     <g id="line2d_18">
      <g>
       <use xlink:href="#m040a121d16" x="60.32" y="213.212433" style="stroke: #000000; stroke-width: 0.8"/>
      </g>
     </g>
     <g id="text_10">
      <!-- 97.5 -->
      <g transform="translate(31.054375 217.011652) scale(0.1 -0.1)">
       <defs>
        <path id="DejaVuSans-37" d="M 525 4666 
L 3525 4666 
L 3525 4397 
L 1831 0 
L 1172 0 
L 2766 4134 
L 525 4134 
L 525 4666 
z
" transform="scale(0.015625)"/>
       </defs>
       <use xlink:href="#DejaVuSans-39"/>
       <use xlink:href="#DejaVuSans-37" x="63.623047"/>
       <use xlink:href="#DejaVuSans-2e" x="127.246094"/>
       <use xlink:href="#DejaVuSans-35" x="159.033203"/>
      </g>
     </g>
    </g>
    <g id="ytick_5">
     <g id="line2d_19">
      <path d="M 60.32 165.49806 
L 550.570909 165.49806 
" clip-path="url(#p3d972410dc)" style="fill: none; stroke: #b0b0b0; stroke-width: 0.8; stroke-linecap: square"/>
     </g>
     <g id="line2d_20">
      <g>
       <use xlink:href="#m040a121d16" x="60.32" y="165.49806" style="stroke: #000000; stroke-width: 0.8"/>
      </g>
     </g>
     <g id="text_11">
      <!-- 100.0 -->
      <g transform="translate(24.691875 169.297279) scale(0.1 -0.1)">
       <use xlink:href="#DejaVuSans-31"/>
       <use xlink:href="#DejaVuSans-30" x="63.623047"/>
       <use xlink:href="#DejaVuSans-30" x="127.246094"/>
       <use xlink:href="#DejaVuSans-2e" x="190.869141"/>
       <use xlink:href="#DejaVuSans-30" x="222.65625"/>
      </g>
     </g>
    </g>
    <g id="ytick_6">
     <g id="line2d_21">
      <path d="M 60.32 117.783687 
L 550.570909 117.783687 
" clip-path="url(#p3d972410dc)" style="fill: none; stroke: #b0b0b0; stroke-width: 0.8; stroke-linecap: square"/>
     </g>
     <g id="line2d_22">
      <g>
       <use xlink:href="#m040a121d16" x="60.32" y="117.783687" style="stroke: #000000; stroke-width: 0.8"/>
      </g>
     </g>
     <g id="text_12">
      <!-- 102.5 -->
      <g transform="translate(24.691875 121.582905) scale(0.1 -0.1)">
       <use xlink:href="#DejaVuSans-31"/>
       <use xlink:href="#DejaVuSans-30" x="63.623047"/>
       <use xlink:href="#DejaVuSans-32" x="127.246094"/>
       <use xlink:href="#DejaVuSans-2e" x="190.869141"/>
       <use xlink:href="#DejaVuSans-35" x="222.65625"/>
      </g>
     </g>
    </g>
    <g id="ytick_7">
     <g id="line2d_23">
      <path d="M 60.32 70.069314 
L 550.570909 70.069314 
" clip-path="url(#p3d972410dc)" style="fill: none; stroke: #b0b0b0; stroke-width: 0.8; stroke-linecap: square"/>
     </g>
     <g id="line2d_24">
      <g>
       <use xlink:href="#m040a121d16" x="60.32" y="70.069314" style="stroke: #000000; stroke-width: 0.8"/>
      </g>
     </g>
     <g id="text_13">
      <!-- 105.0 -->
      <g transform="translate(24.691875 73.868532) scale(0.1 -0.1)">
       <use xlink:href="#DejaVuSans-31"/>
       <use xlink:href="#DejaVuSans-30" x="63.623047"/>
       <use xlink:href="#DejaVuSans-35" x="127.246094"/>
       <use xlink:href="#DejaVuSans-2e" x="190.869141"/>
       <use xlink:href="#DejaVuSans-30" x="222.65625"/>
      </g>
     </g>
    </g>
    <g id="text_14">
     <!-- Power Consumption (mW) -->
     <g transform="translate(18.612188 273.582656) rotate(-90) scale(0.1 -0.1)">
      <defs>
       <path id="DejaVuSans-50" d="M 1259 4147 
L 1259 2394 
L 2053 2394 
Q 2494 2394 2734 2622 
Q 2975 2850 2975 3272 
Q 2975 3691 2734 3919 
Q 2494 4147 2053 4147 
L 1259 4147 
z
M 628 4666 
L 2053 4666 
Q 2838 4666 3239 4311 
Q 3641 3956 3641 3272 
Q 3641 2581 3239 2228 
Q 2838 1875 2053 1875 
L 1259 1875 
L 1259 0 
L 628 0 
L 628 4666 
z
" transform="scale(0.015625)"/>
       <path id="DejaVuSans-77" d="M 269 3500 
L 844 3500 
L 1563 769 
L 2278 3500 
L 2956 3500 
L 3675 769 
L 4391 3500 
L 4966 3500 
L 4050 0 
L 3372 0 
L 2619 2869 
L 1863 0 
L 1184 0 
L 269 3500 
z
" transform="scale(0.015625)"/>
       <path id="DejaVuSans-43" d="M 4122 4306 
L 4122 3641 
Q 3803 3938 3442 4084 
Q 3081 4231 2675 4231 
Q 1875 4231 1450 3742 
Q 1025 3253 1025 2328 
Q 1025 1406 1450 917 
Q 1875 428 2675 428 
Q 3081 428 3442 575 
Q 3803 722 4122 1019 
L 4122 359 
Q 3791 134 3420 21 
Q 3050 -91 2638 -91 
Q 1578 -91 968 557 
Q 359 1206 359 2328 
Q 359 3453 968 4101 
Q 1578 4750 2638 4750 
Q 3056 4750 3426 4639 
Q 3797 4528 4122 4306 
z
" transform="scale(0.015625)"/>
       <path id="DejaVuSans-70" d="M 1159 525 
L 1159 -1331 
L 581 -1331 
L 581 3500 
L 1159 3500 
L 1159 2969 
Q 1341 3281 1617 3432 
Q 1894 3584 2278 3584 
Q 2916 3584 3314 3078 
Q 3713 2572 3713 1747 
Q 3713 922 3314 415 
Q 2916 -91 2278 -91 
Q 1894 -91 1617 61 
Q 1341 213 1159 525 
z
M 3116 1747 
Q 3116 2381 2855 2742 
Q 2594 3103 2138 3103 
Q 1681 3103 1420 2742 
Q 1159 2381 1159 1747 
Q 1159 1113 1420 752 
Q 1681 391 2138 391 
Q 2594 391 2855 752 
Q 3116 1113 3116 1747 
z
" transform="scale(0.015625)"/>
       <path id="DejaVuSans-74" d="M 1172 4494 
L 1172 3500 
L 2356 3500 
L 2356 3053 
L 1172 3053 
L 1172 1153 
Q 1172 725 1289 603 
Q 1406 481 1766 481 
L 2356 481 
L 2356 0 
L 1766 0 
Q 1100 0 847 248 
Q 594 497 594 1153 
L 594 3053 
L 172 3053 
L 172 3500 
L 594 3500 
L 594 4494 
L 1172 4494 
z
" transform="scale(0.015625)"/>
       <path id="DejaVuSans-57" d="M 213 4666 
L 850 4666 
L 1831 722 
L 2809 4666 
L 3519 4666 
L 4500 722 
L 5478 4666 
L 6119 4666 
L 4947 0 
L 4153 0 
L 3169 4050 
L 2175 0 
L 1381 0 
L 213 4666 
z
" transform="scale(0.015625)"/>
      </defs>
      <use xlink:href="#DejaVuSans-50"/>
      <use xlink:href="#DejaVuSans-6f" x="56.677734"/>
      <use xlink:href="#DejaVuSans-77" x="117.859375"/>
      <use xlink:href="#DejaVuSans-65" x="199.646484"/>
      <use xlink:href="#DejaVuSans-72" x="261.169922"/>
      <use xlink:href="#DejaVuSans-20" x="302.283203"/>
      <use xlink:href="#DejaVuSans-43" x="334.070312"/>
      <use xlink:href="#DejaVuSans-6f" x="403.894531"/>
      <use xlink:href="#DejaVuSans-6e" x="465.076172"/>
      <use xlink:href="#DejaVuSans-73" x="528.455078"/>
      <use xlink:href="#DejaVuSans-75" x="580.554688"/>
      <use xlink:href="#DejaVuSans-6d" x="643.933594"/>
      <use xlink:href="#DejaVuSans-70" x="741.345703"/>
      <use xlink:href="#DejaVuSans-74" x="804.822266"/>
      <use xlink:href="#DejaVuSans-69" x="844.03125"/>
      <use xlink:href="#DejaVuSans-6f" x="871.814453"/>
      <use xlink:href="#DejaVuSans-6e" x="932.996094"/>
      <use xlink:href="#DejaVuSans-20" x="996.375"/>
      <use xlink:href="#DejaVuSans-28" x="1028.162109"/>
      <use xlink:href="#DejaVuSans-6d" x="1067.175781"/>
      <use xlink:href="#DejaVuSans-57" x="1164.587891"/>
      <use xlink:href="#DejaVuSans-29" x="1263.464844"/>
     </g>
    </g>
   </g>
   <g id="line2d_25">
    <path d="M 82.604132 305.737462 
L 87.295528 302.545677 
L 91.986925 300.604389 
L 96.678321 297.780748 
L 101.369717 296.137571 
L 106.061114 292.773105 
L 110.75251 288.906648 
L 115.443906 284.693194 
L 120.135302 281.935732 
L 124.826699 280.356426 
L 129.518095 291.261166 
L 134.209491 289.646952 
L 138.900887 286.596178 
L 143.592284 283.136469 
L 148.28368 281.552662 
L 152.975076 278.105861 
L 157.666472 274.282068 
L 162.357869 275.47962 
L 167.049265 271.93945 
L 171.740661 267.705653 
L 176.432057 259.766155 
L 181.123454 253.728433 
L 185.81485 254.589383 
L 190.506246 256.221464 
L 195.197642 255.356954 
L 199.889039 250.292534 
L 204.580435 244.543572 
L 209.271831 247.859064 
L 213.963227 241.164831 
L 218.654624 242.006987 
L 223.34602 239.457464 
L 228.037416 240.466479 
L 232.728813 238.141079 
L 237.420209 237.283257 
L 242.111605 232.661607 
L 246.803001 225.693948 
L 251.494398 229.719431 
L 256.185794 232.032018 
L 260.87719 225.043537 
L 265.568586 223.546938 
L 270.259983 214.872349 
L 274.951379 210.007757 
L 279.642775 207.997388 
L 284.334171 200.93268 
L 289.025568 198.80846 
L 293.716964 200.064113 
L 298.40836 199.618863 
L 303.099756 198.303075 
L 307.791153 198.486657 
L 312.482549 193.562769 
L 317.173945 191.791634 
L 321.865341 190.77375 
L 326.556738 188.797236 
L 331.248134 189.144366 
L 335.93953 188.134264 
L 340.630926 185.641695 
L 345.322323 183.072638 
L 350.013719 179.861635 
L 354.705115 178.605077 
L 359.396512 173.481919 
L 364.087908 180.013122 
L 368.779304 179.514494 
L 373.4707 161.836999 
L 378.162097 155.843287 
L 382.853493 154.257897 
L 387.544889 167.373524 
L 392.236285 166.644208 
L 396.927682 162.809685 
L 401.619078 149.263788 
L 406.310474 150.452785 
L 411.00187 152.365408 
L 415.693267 161.637984 
L 420.384663 153.970909 
L 425.076059 158.448132 
L 429.767455 178.06629 
L 434.458852 169.424941 
L 439.150248 158.43647 
L 443.841644 158.691858 
L 448.53304 159.765314 
L 453.224437 155.253748 
L 457.915833 155.23258 
L 462.607229 154.220115 
L 467.298625 147.841526 
L 471.990022 152.588308 
L 476.681418 152.520329 
L 481.372814 154.413404 
L 486.064211 147.863093 
L 490.755607 140.412591 
L 495.447003 139.543344 
L 500.138399 140.521853 
L 504.829796 135.567351 
L 509.521192 131.683418 
L 514.212588 137.235772 
L 518.903984 131.901935 
L 523.595381 131.290219 
L 528.286777 130.721689 
" clip-path="url(#p3d972410dc)" style="fill: none; stroke: #0000ff; stroke-width: 1.5; stroke-linecap: square"/>
   </g>
   <g id="line2d_26">
    <path d="M 82.604132 302.803613 
L 87.295528 297.883756 
L 91.986925 294.311779 
L 96.678321 293.504713 
L 101.369717 293.778193 
L 106.061114 287.450629 
L 110.75251 284.50787 
L 115.443906 281.010111 
L 120.135302 278.454522 
L 124.826699 275.184815 
L 129.518095 271.553053 
L 134.209491 267.530823 
L 138.900887 264.059503 
L 143.592284 262.037229 
L 148.28368 261.124236 
L 152.975076 256.876555 
L 157.666472 253.610313 
L 162.357869 254.39556 
L 167.049265 243.65298 
L 171.740661 239.586611 
L 176.432057 233.76275 
L 181.123454 228.665846 
L 185.81485 227.045735 
L 190.506246 230.709215 
L 195.197642 229.701895 
L 199.889039 222.924201 
L 204.580435 219.768152 
L 209.271831 221.313453 
L 213.963227 219.25686 
L 218.654624 214.776915 
L 223.34602 210.240553 
L 228.037416 211.140552 
L 232.728813 207.288035 
L 237.420209 206.677675 
L 242.111605 201.732772 
L 246.803001 198.622522 
L 251.494398 194.394393 
L 256.185794 195.483341 
L 260.87719 188.477618 
L 265.568586 184.95215 
L 270.259983 183.664074 
L 274.951379 177.772563 
L 279.642775 175.489215 
L 284.334171 171.856169 
L 289.025568 168.315732 
L 293.716964 166.365481 
L 298.40836 164.601707 
L 303.099756 163.373936 
L 307.791153 161.169191 
L 312.482549 159.277073 
L 317.173945 159.284299 
L 321.865341 158.116734 
L 326.556738 151.325979 
L 331.248134 149.085921 
L 335.93953 147.817568 
L 340.630926 143.704724 
L 345.322323 142.199336 
L 350.013719 137.703439 
L 354.705115 140.770773 
L 359.396512 140.80544 
L 364.087908 140.080657 
L 368.779304 137.688988 
L 373.4707 124.566814 
L 378.162097 113.068274 
L 382.853493 107.466801 
L 387.544889 116.646514 
L 392.236285 117.249288 
L 396.927682 109.589806 
L 401.619078 99.546812 
L 406.310474 109.603374 
L 411.00187 106.468574 
L 415.693267 113.392025 
L 420.384663 108.729085 
L 425.076059 106.986871 
L 429.767455 104.730914 
L 434.458852 102.735064 
L 439.150248 100.486975 
L 443.841644 96.417082 
L 448.53304 96.640711 
L 453.224437 90.073368 
L 457.915833 88.04014 
L 462.607229 84.935175 
L 467.298625 83.853757 
L 471.990022 81.697617 
L 476.681418 79.8691 
L 481.372814 74.782513 
L 486.064211 74.990891 
L 490.755607 72.452828 
L 495.447003 71.33863 
L 500.138399 56.776549 
L 504.829796 54.870873 
L 509.521192 54.488261 
L 514.212588 51.706004 
L 518.903984 51.974338 
L 523.595381 46.549903 
L 528.286777 46.66364 
" clip-path="url(#p3d972410dc)" style="fill: none; stroke: #ffa500; stroke-width: 1.5; stroke-linecap: square"/>
   </g>
   <g id="line2d_27">
    <path d="M 82.604132 373.532727 
L 87.295528 373.532727 
L 91.986925 373.532727 
L 96.678321 373.532727 
L 101.369717 373.532727 
L 106.061114 373.532727 
L 110.75251 373.532727 
L 115.443906 373.532727 
L 120.135302 373.532727 
L 124.826699 373.532727 
L 129.518095 373.532727 
L 134.209491 373.532727 
L 138.900887 373.532727 
L 143.592284 373.532727 
L 148.28368 373.532727 
L 152.975076 373.532727 
L 157.666472 373.532727 
L 162.357869 373.532727 
L 167.049265 373.532727 
L 171.740661 373.532727 
L 176.432057 373.532727 
L 181.123454 373.532727 
L 185.81485 373.532727 
L 190.506246 373.532727 
L 195.197642 373.532727 
L 199.889039 373.532727 
L 204.580435 373.532727 
L 209.271831 373.532727 
L 213.963227 373.532727 
L 218.654624 373.532727 
L 223.34602 373.532727 
L 228.037416 373.532727 
L 232.728813 373.532727 
L 237.420209 373.532727 
L 242.111605 373.532727 
L 246.803001 373.532727 
L 251.494398 373.532727 
L 256.185794 373.532727 
L 260.87719 373.532727 
L 265.568586 373.532727 
L 270.259983 373.532727 
L 274.951379 373.532727 
L 279.642775 373.532727 
L 284.334171 373.532727 
L 289.025568 373.532727 
L 293.716964 373.532727 
L 298.40836 373.532727 
L 303.099756 373.532727 
L 307.791153 373.532727 
L 312.482549 373.532727 
L 317.173945 373.532727 
L 321.865341 373.532727 
L 326.556738 373.532727 
L 331.248134 373.532727 
L 335.93953 373.532727 
L 340.630926 373.532727 
L 345.322323 373.532727 
L 350.013719 373.532727 
L 354.705115 373.532727 
L 359.396512 373.532727 
L 364.087908 373.532727 
L 368.779304 373.532727 
L 373.4707 373.532727 
L 378.162097 373.532727 
L 382.853493 373.532727 
L 387.544889 373.532727 
L 392.236285 373.532727 
L 396.927682 373.532727 
L 401.619078 373.532727 
L 406.310474 373.532727 
L 411.00187 373.532727 
L 415.693267 373.532727 
L 420.384663 373.532727 
L 425.076059 373.532727 
L 429.767455 373.532727 
L 434.458852 373.532727 
L 439.150248 373.532727 
L 443.841644 373.532727 
L 448.53304 373.532727 
L 453.224437 373.532727 
L 457.915833 373.532727 
L 462.607229 373.532727 
L 467.298625 373.532727 
L 471.990022 373.532727 
L 476.681418 373.532727 
L 481.372814 373.532727 
L 486.064211 373.532727 
L 490.755607 373.532727 
L 495.447003 373.532727 
L 500.138399 373.532727 
L 504.829796 373.532727 
L 509.521192 373.532727 
L 514.212588 373.532727 
L 518.903984 373.532727 
L 523.595381 373.532727 
L 528.286777 373.532727 
" clip-path="url(#p3d972410dc)" style="fill: none; stroke: #1f77b4; stroke-width: 1.5; stroke-linecap: square"/>
   </g>
   <g id="line2d_28">
    <path d="M 82.604132 293.073333 
L 87.295528 290.445059 
L 91.986925 287.816784 
L 96.678321 285.18851 
L 101.369717 282.560236 
L 106.061114 279.931961 
L 110.75251 277.303687 
L 115.443906 274.675413 
L 120.135302 272.047138 
L 124.826699 269.418864 
L 129.518095 266.79059 
L 134.209491 264.162315 
L 138.900887 261.534041 
L 143.592284 258.905767 
L 148.28368 256.277492 
L 152.975076 253.649218 
L 157.666472 251.020944 
L 162.357869 248.392669 
L 167.049265 245.764395 
L 171.740661 243.136121 
L 176.432057 240.507847 
L 181.123454 237.879572 
L 185.81485 235.251298 
L 190.506246 232.623024 
L 195.197642 229.994749 
L 199.889039 227.366475 
L 204.580435 224.738201 
L 209.271831 222.109926 
L 213.963227 219.481652 
L 218.654624 216.853378 
L 223.34602 214.225103 
L 228.037416 211.596829 
L 232.728813 208.968555 
L 237.420209 206.34028 
L 242.111605 203.712006 
L 246.803001 201.083732 
L 251.494398 198.455457 
L 256.185794 195.827183 
L 260.87719 193.198909 
L 265.568586 190.570635 
L 270.259983 187.94236 
L 274.951379 185.314086 
L 279.642775 182.685812 
L 284.334171 180.057537 
L 289.025568 177.429263 
L 293.716964 174.800989 
L 298.40836 172.172714 
L 303.099756 169.54444 
L 307.791153 166.916166 
L 312.482549 164.287891 
L 317.173945 161.659617 
L 321.865341 159.031343 
L 326.556738 156.403068 
L 331.248134 153.774794 
L 335.93953 151.14652 
L 340.630926 148.518245 
L 345.322323 145.889971 
L 350.013719 143.261697 
L 354.705115 140.633422 
L 359.396512 138.005148 
L 364.087908 135.376874 
L 368.779304 132.7486 
L 373.4707 130.120325 
L 378.162097 127.492051 
L 382.853493 124.863777 
L 387.544889 122.235502 
L 392.236285 119.607228 
L 396.927682 116.978954 
L 401.619078 114.350679 
L 406.310474 111.722405 
L 411.00187 109.094131 
L 415.693267 106.465856 
L 420.384663 103.837582 
L 425.076059 101.209308 
L 429.767455 98.581033 
L 434.458852 95.952759 
L 439.150248 93.324485 
L 443.841644 90.69621 
L 448.53304 88.067936 
L 453.224437 85.439662 
L 457.915833 82.811387 
L 462.607229 80.183113 
L 467.298625 77.554839 
L 471.990022 74.926565 
L 476.681418 72.29829 
L 481.372814 69.670016 
L 486.064211 67.041742 
L 490.755607 64.413467 
L 495.447003 61.785193 
L 500.138399 59.156919 
L 504.829796 56.528644 
L 509.521192 53.90037 
L 514.212588 51.272096 
L 518.903984 48.643821 
L 523.595381 46.015547 
L 528.286777 43.387273 
" clip-path="url(#p3d972410dc)" style="fill: none; stroke-dasharray: 5.55,2.4; stroke-dashoffset: 0; stroke: #ffa500; stroke-width: 1.5"/>
   </g>
   <g id="line2d_29">
    <path d="M 82.604132 290.470758 
L 87.295528 287.884536 
L 91.986925 285.33102 
L 96.678321 282.791524 
L 101.369717 280.273053 
L 106.061114 277.775609 
L 110.75251 275.294518 
L 115.443906 272.825108 
L 120.135302 270.379059 
L 124.826699 267.944694 
L 129.518095 265.533691 
L 134.209491 263.134368 
L 138.900887 260.767755 
L 143.592284 258.415157 
L 148.28368 256.09293 
L 152.975076 253.782385 
L 157.666472 251.495203 
L 162.357869 249.219701 
L 167.049265 246.967561 
L 171.740661 244.736448 
L 176.432057 242.528698 
L 181.123454 240.341974 
L 185.81485 238.178612 
L 190.506246 236.038613 
L 195.197642 233.921977 
L 199.889039 231.828704 
L 204.580435 229.758791 
L 209.271831 227.71224 
L 213.963227 225.689052 
L 218.654624 223.689227 
L 223.34602 221.712765 
L 228.037416 219.759666 
L 232.728813 217.829929 
L 237.420209 215.923555 
L 242.111605 214.040543 
L 246.803001 212.180892 
L 251.494398 210.344604 
L 256.185794 208.531678 
L 260.87719 206.742115 
L 265.568586 204.975914 
L 270.259983 203.233077 
L 274.951379 201.513602 
L 279.642775 199.81749 
L 284.334171 198.14474 
L 289.025568 196.495351 
L 293.716964 194.869324 
L 298.40836 193.26666 
L 303.099756 191.687359 
L 307.791153 190.131421 
L 312.482549 188.596509 
L 317.173945 187.080286 
L 321.865341 185.58509 
L 326.556738 184.09924 
L 331.248134 182.627406 
L 335.93953 181.157909 
L 340.630926 179.693085 
L 345.322323 178.228261 
L 350.013719 176.768107 
L 354.705115 175.307954 
L 359.396512 173.852473 
L 364.087908 172.396993 
L 368.779304 170.943849 
L 373.4707 169.490705 
L 378.162097 168.037561 
L 382.853493 166.584417 
L 387.544889 165.131273 
L 392.236285 163.678129 
L 396.927682 162.224985 
L 401.619078 160.771841 
L 406.310474 159.318697 
L 411.00187 157.865553 
L 415.693267 156.412409 
L 420.384663 154.959265 
L 425.076059 153.506121 
L 429.767455 152.052977 
L 434.458852 150.599833 
L 439.150248 149.146689 
L 443.841644 147.693546 
L 448.53304 146.240402 
L 453.224437 144.787258 
L 457.915833 143.334114 
L 462.607229 141.88097 
L 467.298625 140.427826 
L 471.990022 138.974682 
L 476.681418 137.521538 
L 481.372814 136.068394 
L 486.064211 134.61525 
L 490.755607 133.162106 
L 495.447003 131.708962 
L 500.138399 130.255818 
L 504.829796 128.802674 
L 509.521192 127.34953 
L 514.212588 125.896386 
L 518.903984 124.443242 
L 523.595381 122.990098 
L 528.286777 121.536954 
" clip-path="url(#p3d972410dc)" style="fill: none; stroke-dasharray: 5.55,2.4; stroke-dashoffset: 0; stroke: #0000ff; stroke-width: 1.5"/>
   </g>
   <g id="patch_3">
    <path d="M 60.32 390.04 
L 60.32 26.88 
" style="fill: none; stroke: #000000; stroke-width: 0.8; stroke-linejoin: miter; stroke-linecap: square"/>
   </g>
   <g id="patch_4">
    <path d="M 550.570909 390.04 
L 550.570909 26.88 
" style="fill: none; stroke: #000000; stroke-width: 0.8; stroke-linejoin: miter; stroke-linecap: square"/>
   </g>
   <g id="patch_5">
    <path d="M 60.32 390.04 
L 550.570909 390.04 
" style="fill: none; stroke: #000000; stroke-width: 0.8; stroke-linejoin: miter; stroke-linecap: square"/>
   </g>
   <g id="patch_6">
    <path d="M 60.32 26.88 
L 550.570909 26.88 
" style="fill: none; stroke: #000000; stroke-width: 0.8; stroke-linejoin: miter; stroke-linecap: square"/>
   </g>
   <g id="text_15">
    <!-- 101.82 -->
    <g style="fill: #0000ff" transform="translate(528.286777 138.320127) scale(0.1 -0.1)">
     <use xlink:href="#DejaVuSans-31"/>
     <use xlink:href="#DejaVuSans-30" x="63.623047"/>
     <use xlink:href="#DejaVuSans-31" x="127.246094"/>
     <use xlink:href="#DejaVuSans-2e" x="190.869141"/>
     <use xlink:href="#DejaVuSans-38" x="222.65625"/>
     <use xlink:href="#DejaVuSans-32" x="286.279297"/>
    </g>
   </g>
   <g id="text_16">
    <!-- 106.23 -->
    <g style="fill: #ffa500" transform="translate(528.286777 54.262078) scale(0.1 -0.1)">
     <defs>
      <path id="DejaVuSans-33" d="M 2597 2516 
Q 3050 2419 3304 2112 
Q 3559 1806 3559 1356 
Q 3559 666 3084 287 
Q 2609 -91 1734 -91 
Q 1441 -91 1130 -33 
Q 819 25 488 141 
L 488 750 
Q 750 597 1062 519 
Q 1375 441 1716 441 
Q 2309 441 2620 675 
Q 2931 909 2931 1356 
Q 2931 1769 2642 2001 
Q 2353 2234 1838 2234 
L 1294 2234 
L 1294 2753 
L 1863 2753 
Q 2328 2753 2575 2939 
Q 2822 3125 2822 3475 
Q 2822 3834 2567 4026 
Q 2313 4219 1838 4219 
Q 1578 4219 1281 4162 
Q 984 4106 628 3988 
L 628 4550 
Q 988 4650 1302 4700 
Q 1616 4750 1894 4750 
Q 2613 4750 3031 4423 
Q 3450 4097 3450 3541 
Q 3450 3153 3228 2886 
Q 3006 2619 2597 2516 
z
" transform="scale(0.015625)"/>
     </defs>
     <use xlink:href="#DejaVuSans-31"/>
     <use xlink:href="#DejaVuSans-30" x="63.623047"/>
     <use xlink:href="#DejaVuSans-36" x="127.246094"/>
     <use xlink:href="#DejaVuSans-2e" x="190.869141"/>
     <use xlink:href="#DejaVuSans-32" x="222.65625"/>
     <use xlink:href="#DejaVuSans-33" x="286.279297"/>
    </g>
   </g>
   <g id="text_17">
    <!-- 89.10 -->
    <g transform="translate(528.286777 381.131165) scale(0.1 -0.1)">
     <use xlink:href="#DejaVuSans-38"/>
     <use xlink:href="#DejaVuSans-39" x="63.623047"/>
     <use xlink:href="#DejaVuSans-2e" x="127.246094"/>
     <use xlink:href="#DejaVuSans-31" x="159.033203"/>
     <use xlink:href="#DejaVuSans-30" x="222.65625"/>
    </g>
   </g>
   <g id="text_18">
    <!-- The Effect of Layer-wise Update on Power Consumption (6 ms inference period) -->
    <g transform="translate(66.51233 20.88) scale(0.12 -0.12)">
     <defs>
      <path id="DejaVuSans-54" d="M -19 4666 
L 3928 4666 
L 3928 4134 
L 2272 4134 
L 2272 0 
L 1638 0 
L 1638 4134 
L -19 4134 
L -19 4666 
z
" transform="scale(0.015625)"/>
      <path id="DejaVuSans-45" d="M 628 4666 
L 3578 4666 
L 3578 4134 
L 1259 4134 
L 1259 2753 
L 3481 2753 
L 3481 2222 
L 1259 2222 
L 1259 531 
L 3634 531 
L 3634 0 
L 628 0 
L 628 4666 
z
" transform="scale(0.015625)"/>
      <path id="DejaVuSans-2d" d="M 313 2009 
L 1997 2009 
L 1997 1497 
L 313 1497 
L 313 2009 
z
" transform="scale(0.015625)"/>
      <path id="DejaVuSans-55" d="M 556 4666 
L 1191 4666 
L 1191 1831 
Q 1191 1081 1462 751 
Q 1734 422 2344 422 
Q 2950 422 3222 751 
Q 3494 1081 3494 1831 
L 3494 4666 
L 4128 4666 
L 4128 1753 
Q 4128 841 3676 375 
Q 3225 -91 2344 -91 
Q 1459 -91 1007 375 
Q 556 841 556 1753 
L 556 4666 
z
" transform="scale(0.015625)"/>
     </defs>
     <use xlink:href="#DejaVuSans-54"/>
     <use xlink:href="#DejaVuSans-68" x="61.083984"/>
     <use xlink:href="#DejaVuSans-65" x="124.462891"/>
     <use xlink:href="#DejaVuSans-20" x="185.986328"/>
     <use xlink:href="#DejaVuSans-45" x="217.773438"/>
     <use xlink:href="#DejaVuSans-66" x="280.957031"/>
     <use xlink:href="#DejaVuSans-66" x="316.162109"/>
     <use xlink:href="#DejaVuSans-65" x="351.367188"/>
     <use xlink:href="#DejaVuSans-63" x="412.890625"/>
     <use xlink:href="#DejaVuSans-74" x="467.871094"/>
     <use xlink:href="#DejaVuSans-20" x="507.080078"/>
     <use xlink:href="#DejaVuSans-6f" x="538.867188"/>
     <use xlink:href="#DejaVuSans-66" x="600.048828"/>
     <use xlink:href="#DejaVuSans-20" x="635.253906"/>
     <use xlink:href="#DejaVuSans-4c" x="667.041016"/>
     <use xlink:href="#DejaVuSans-61" x="722.753906"/>
     <use xlink:href="#DejaVuSans-79" x="784.033203"/>
     <use xlink:href="#DejaVuSans-65" x="843.212891"/>
     <use xlink:href="#DejaVuSans-72" x="904.736328"/>
     <use xlink:href="#DejaVuSans-2d" x="939.474609"/>
     <use xlink:href="#DejaVuSans-77" x="975.558594"/>
     <use xlink:href="#DejaVuSans-69" x="1057.345703"/>
     <use xlink:href="#DejaVuSans-73" x="1085.128906"/>
     <use xlink:href="#DejaVuSans-65" x="1137.228516"/>
     <use xlink:href="#DejaVuSans-20" x="1198.751953"/>
     <use xlink:href="#DejaVuSans-55" x="1230.539062"/>
     <use xlink:href="#DejaVuSans-70" x="1303.732422"/>
     <use xlink:href="#DejaVuSans-64" x="1367.208984"/>
     <use xlink:href="#DejaVuSans-61" x="1430.685547"/>
     <use xlink:href="#DejaVuSans-74" x="1491.964844"/>
     <use xlink:href="#DejaVuSans-65" x="1531.173828"/>
     <use xlink:href="#DejaVuSans-20" x="1592.697266"/>
     <use xlink:href="#DejaVuSans-6f" x="1624.484375"/>
     <use xlink:href="#DejaVuSans-6e" x="1685.666016"/>
     <use xlink:href="#DejaVuSans-20" x="1749.044922"/>
     <use xlink:href="#DejaVuSans-50" x="1780.832031"/>
     <use xlink:href="#DejaVuSans-6f" x="1837.509766"/>
     <use xlink:href="#DejaVuSans-77" x="1898.691406"/>
     <use xlink:href="#DejaVuSans-65" x="1980.478516"/>
     <use xlink:href="#DejaVuSans-72" x="2042.001953"/>
     <use xlink:href="#DejaVuSans-20" x="2083.115234"/>
     <use xlink:href="#DejaVuSans-43" x="2114.902344"/>
     <use xlink:href="#DejaVuSans-6f" x="2184.726562"/>
     <use xlink:href="#DejaVuSans-6e" x="2245.908203"/>
     <use xlink:href="#DejaVuSans-73" x="2309.287109"/>
     <use xlink:href="#DejaVuSans-75" x="2361.386719"/>
     <use xlink:href="#DejaVuSans-6d" x="2424.765625"/>
     <use xlink:href="#DejaVuSans-70" x="2522.177734"/>
     <use xlink:href="#DejaVuSans-74" x="2585.654297"/>
     <use xlink:href="#DejaVuSans-69" x="2624.863281"/>
     <use xlink:href="#DejaVuSans-6f" x="2652.646484"/>
     <use xlink:href="#DejaVuSans-6e" x="2713.828125"/>
     <use xlink:href="#DejaVuSans-20" x="2777.207031"/>
     <use xlink:href="#DejaVuSans-28" x="2808.994141"/>
     <use xlink:href="#DejaVuSans-36" x="2848.007812"/>
     <use xlink:href="#DejaVuSans-20" x="2911.630859"/>
     <use xlink:href="#DejaVuSans-6d" x="2943.417969"/>
     <use xlink:href="#DejaVuSans-73" x="3040.830078"/>
     <use xlink:href="#DejaVuSans-20" x="3092.929688"/>
     <use xlink:href="#DejaVuSans-69" x="3124.716797"/>
     <use xlink:href="#DejaVuSans-6e" x="3152.5"/>
     <use xlink:href="#DejaVuSans-66" x="3215.878906"/>
     <use xlink:href="#DejaVuSans-65" x="3251.083984"/>
     <use xlink:href="#DejaVuSans-72" x="3312.607422"/>
     <use xlink:href="#DejaVuSans-65" x="3351.470703"/>
     <use xlink:href="#DejaVuSans-6e" x="3412.994141"/>
     <use xlink:href="#DejaVuSans-63" x="3476.373047"/>
     <use xlink:href="#DejaVuSans-65" x="3531.353516"/>
     <use xlink:href="#DejaVuSans-20" x="3592.876953"/>
     <use xlink:href="#DejaVuSans-70" x="3624.664062"/>
     <use xlink:href="#DejaVuSans-65" x="3688.140625"/>
     <use xlink:href="#DejaVuSans-72" x="3749.664062"/>
     <use xlink:href="#DejaVuSans-69" x="3790.777344"/>
     <use xlink:href="#DejaVuSans-6f" x="3818.560547"/>
     <use xlink:href="#DejaVuSans-64" x="3879.742188"/>
     <use xlink:href="#DejaVuSans-29" x="3943.21875"/>
    </g>
   </g>
   <g id="legend_1">
    <g id="patch_7">
     <path d="M 67.32 108.54875 
L 332.415313 108.54875 
Q 334.415313 108.54875 334.415313 106.54875 
L 334.415313 33.88 
Q 334.415313 31.88 332.415313 31.88 
L 67.32 31.88 
Q 65.32 31.88 65.32 33.88 
L 65.32 106.54875 
Q 65.32 108.54875 67.32 108.54875 
z
" style="fill: #ffffff; opacity: 0.8; stroke: #cccccc; stroke-linejoin: miter"/>
    </g>
    <g id="line2d_30">
     <path d="M 69.32 39.978437 
L 79.32 39.978437 
L 89.32 39.978437 
" style="fill: none; stroke: #0000ff; stroke-width: 1.5; stroke-linecap: square"/>
    </g>
    <g id="text_19">
     <!-- Layer-wise Update Enabled -->
     <g transform="translate(97.32 43.478437) scale(0.1 -0.1)">
      <defs>
       <path id="DejaVuSans-6c" d="M 603 4863 
L 1178 4863 
L 1178 0 
L 603 0 
L 603 4863 
z
" transform="scale(0.015625)"/>
      </defs>
      <use xlink:href="#DejaVuSans-4c"/>
      <use xlink:href="#DejaVuSans-61" x="55.712891"/>
      <use xlink:href="#DejaVuSans-79" x="116.992188"/>
      <use xlink:href="#DejaVuSans-65" x="176.171875"/>
      <use xlink:href="#DejaVuSans-72" x="237.695312"/>
      <use xlink:href="#DejaVuSans-2d" x="272.433594"/>
      <use xlink:href="#DejaVuSans-77" x="308.517578"/>
      <use xlink:href="#DejaVuSans-69" x="390.304688"/>
      <use xlink:href="#DejaVuSans-73" x="418.087891"/>
      <use xlink:href="#DejaVuSans-65" x="470.1875"/>
      <use xlink:href="#DejaVuSans-20" x="531.710938"/>
      <use xlink:href="#DejaVuSans-55" x="563.498047"/>
      <use xlink:href="#DejaVuSans-70" x="636.691406"/>
      <use xlink:href="#DejaVuSans-64" x="700.167969"/>
      <use xlink:href="#DejaVuSans-61" x="763.644531"/>
      <use xlink:href="#DejaVuSans-74" x="824.923828"/>
      <use xlink:href="#DejaVuSans-65" x="864.132812"/>
      <use xlink:href="#DejaVuSans-20" x="925.65625"/>
      <use xlink:href="#DejaVuSans-45" x="957.443359"/>
      <use xlink:href="#DejaVuSans-6e" x="1020.626953"/>
      <use xlink:href="#DejaVuSans-61" x="1084.005859"/>
      <use xlink:href="#DejaVuSans-62" x="1145.285156"/>
      <use xlink:href="#DejaVuSans-6c" x="1208.761719"/>
      <use xlink:href="#DejaVuSans-65" x="1236.544922"/>
      <use xlink:href="#DejaVuSans-64" x="1298.068359"/>
     </g>
    </g>
    <g id="line2d_31">
     <path d="M 69.32 54.656563 
L 79.32 54.656563 
L 89.32 54.656563 
" style="fill: none; stroke: #ffa500; stroke-width: 1.5; stroke-linecap: square"/>
    </g>
    <g id="text_20">
     <!-- Layer-wise Update Disabled -->
     <g transform="translate(97.32 58.156563) scale(0.1 -0.1)">
      <defs>
       <path id="DejaVuSans-44" d="M 1259 4147 
L 1259 519 
L 2022 519 
Q 2988 519 3436 956 
Q 3884 1394 3884 2338 
Q 3884 3275 3436 3711 
Q 2988 4147 2022 4147 
L 1259 4147 
z
M 628 4666 
L 1925 4666 
Q 3281 4666 3915 4102 
Q 4550 3538 4550 2338 
Q 4550 1131 3912 565 
Q 3275 0 1925 0 
L 628 0 
L 628 4666 
z
" transform="scale(0.015625)"/>
      </defs>
      <use xlink:href="#DejaVuSans-4c"/>
      <use xlink:href="#DejaVuSans-61" x="55.712891"/>
      <use xlink:href="#DejaVuSans-79" x="116.992188"/>
      <use xlink:href="#DejaVuSans-65" x="176.171875"/>
      <use xlink:href="#DejaVuSans-72" x="237.695312"/>
      <use xlink:href="#DejaVuSans-2d" x="272.433594"/>
      <use xlink:href="#DejaVuSans-77" x="308.517578"/>
      <use xlink:href="#DejaVuSans-69" x="390.304688"/>
      <use xlink:href="#DejaVuSans-73" x="418.087891"/>
      <use xlink:href="#DejaVuSans-65" x="470.1875"/>
      <use xlink:href="#DejaVuSans-20" x="531.710938"/>
      <use xlink:href="#DejaVuSans-55" x="563.498047"/>
      <use xlink:href="#DejaVuSans-70" x="636.691406"/>
      <use xlink:href="#DejaVuSans-64" x="700.167969"/>
      <use xlink:href="#DejaVuSans-61" x="763.644531"/>
      <use xlink:href="#DejaVuSans-74" x="824.923828"/>
      <use xlink:href="#DejaVuSans-65" x="864.132812"/>
      <use xlink:href="#DejaVuSans-20" x="925.65625"/>
      <use xlink:href="#DejaVuSans-44" x="957.443359"/>
      <use xlink:href="#DejaVuSans-69" x="1034.445312"/>
      <use xlink:href="#DejaVuSans-73" x="1062.228516"/>
      <use xlink:href="#DejaVuSans-61" x="1114.328125"/>
      <use xlink:href="#DejaVuSans-62" x="1175.607422"/>
      <use xlink:href="#DejaVuSans-6c" x="1239.083984"/>
      <use xlink:href="#DejaVuSans-65" x="1266.867188"/>
      <use xlink:href="#DejaVuSans-64" x="1328.390625"/>
     </g>
    </g>
    <g id="line2d_32">
     <path d="M 69.32 69.334687 
L 79.32 69.334687 
L 89.32 69.334687 
" style="fill: none; stroke: #1f77b4; stroke-width: 1.5; stroke-linecap: square"/>
    </g>
    <g id="text_21">
     <!-- WFE -->
     <g transform="translate(97.32 72.834687) scale(0.1 -0.1)">
      <defs>
       <path id="DejaVuSans-46" d="M 628 4666 
L 3309 4666 
L 3309 4134 
L 1259 4134 
L 1259 2759 
L 3109 2759 
L 3109 2228 
L 1259 2228 
L 1259 0 
L 628 0 
L 628 4666 
z
" transform="scale(0.015625)"/>
      </defs>
      <use xlink:href="#DejaVuSans-57"/>
      <use xlink:href="#DejaVuSans-46" x="98.876953"/>
      <use xlink:href="#DejaVuSans-45" x="156.396484"/>
     </g>
    </g>
    <g id="line2d_33">
     <path d="M 69.32 84.012812 
L 79.32 84.012812 
L 89.32 84.012812 
" style="fill: none; stroke-dasharray: 5.55,2.4; stroke-dashoffset: 0; stroke: #ffa500; stroke-width: 1.5"/>
    </g>
    <g id="text_22">
     <!-- Trendlline: 0.14x+92.63 -->
     <g transform="translate(97.32 87.512812) scale(0.1 -0.1)">
      <defs>
       <path id="DejaVuSans-3a" d="M 750 794 
L 1409 794 
L 1409 0 
L 750 0 
L 750 794 
z
M 750 3309 
L 1409 3309 
L 1409 2516 
L 750 2516 
L 750 3309 
z
" transform="scale(0.015625)"/>
       <path id="DejaVuSans-78" d="M 3513 3500 
L 2247 1797 
L 3578 0 
L 2900 0 
L 1881 1375 
L 863 0 
L 184 0 
L 1544 1831 
L 300 3500 
L 978 3500 
L 1906 2253 
L 2834 3500 
L 3513 3500 
z
" transform="scale(0.015625)"/>
       <path id="DejaVuSans-2b" d="M 2944 4013 
L 2944 2272 
L 4684 2272 
L 4684 1741 
L 2944 1741 
L 2944 0 
L 2419 0 
L 2419 1741 
L 678 1741 
L 678 2272 
L 2419 2272 
L 2419 4013 
L 2944 4013 
z
" transform="scale(0.015625)"/>
      </defs>
      <use xlink:href="#DejaVuSans-54"/>
      <use xlink:href="#DejaVuSans-72" x="46.333984"/>
      <use xlink:href="#DejaVuSans-65" x="85.197266"/>
      <use xlink:href="#DejaVuSans-6e" x="146.720703"/>
      <use xlink:href="#DejaVuSans-64" x="210.099609"/>
      <use xlink:href="#DejaVuSans-6c" x="273.576172"/>
      <use xlink:href="#DejaVuSans-6c" x="301.359375"/>
      <use xlink:href="#DejaVuSans-69" x="329.142578"/>
      <use xlink:href="#DejaVuSans-6e" x="356.925781"/>
      <use xlink:href="#DejaVuSans-65" x="420.304688"/>
      <use xlink:href="#DejaVuSans-3a" x="481.828125"/>
      <use xlink:href="#DejaVuSans-20" x="515.519531"/>
      <use xlink:href="#DejaVuSans-30" x="547.306641"/>
      <use xlink:href="#DejaVuSans-2e" x="610.929688"/>
      <use xlink:href="#DejaVuSans-31" x="642.716797"/>
      <use xlink:href="#DejaVuSans-34" x="706.339844"/>
      <use xlink:href="#DejaVuSans-78" x="769.962891"/>
      <use xlink:href="#DejaVuSans-2b" x="829.142578"/>
      <use xlink:href="#DejaVuSans-39" x="912.931641"/>
      <use xlink:href="#DejaVuSans-32" x="976.554688"/>
      <use xlink:href="#DejaVuSans-2e" x="1040.177734"/>
      <use xlink:href="#DejaVuSans-36" x="1071.964844"/>
      <use xlink:href="#DejaVuSans-33" x="1135.587891"/>
     </g>
    </g>
    <g id="line2d_34">
     <path d="M 69.32 98.690938 
L 79.32 98.690938 
L 89.32 98.690938 
" style="fill: none; stroke-dasharray: 5.55,2.4; stroke-dashoffset: 0; stroke: #0000ff; stroke-width: 1.5"/>
    </g>
    <g id="text_23">
     <!-- Trendline: 0.14num_layers_to_compute+92.63 -->
     <g transform="translate(97.32 102.190938) scale(0.1 -0.1)">
      <defs>
       <path id="DejaVuSans-5f" d="M 3263 -1063 
L 3263 -1509 
L -63 -1509 
L -63 -1063 
L 3263 -1063 
z
" transform="scale(0.015625)"/>
      </defs>
      <use xlink:href="#DejaVuSans-54"/>
      <use xlink:href="#DejaVuSans-72" x="46.333984"/>
      <use xlink:href="#DejaVuSans-65" x="85.197266"/>
      <use xlink:href="#DejaVuSans-6e" x="146.720703"/>
      <use xlink:href="#DejaVuSans-64" x="210.099609"/>
      <use xlink:href="#DejaVuSans-6c" x="273.576172"/>
      <use xlink:href="#DejaVuSans-69" x="301.359375"/>
      <use xlink:href="#DejaVuSans-6e" x="329.142578"/>
      <use xlink:href="#DejaVuSans-65" x="392.521484"/>
      <use xlink:href="#DejaVuSans-3a" x="454.044922"/>
      <use xlink:href="#DejaVuSans-20" x="487.736328"/>
      <use xlink:href="#DejaVuSans-30" x="519.523438"/>
      <use xlink:href="#DejaVuSans-2e" x="583.146484"/>
      <use xlink:href="#DejaVuSans-31" x="614.933594"/>
      <use xlink:href="#DejaVuSans-34" x="678.556641"/>
      <use xlink:href="#DejaVuSans-6e" x="742.179688"/>
      <use xlink:href="#DejaVuSans-75" x="805.558594"/>
      <use xlink:href="#DejaVuSans-6d" x="868.9375"/>
      <use xlink:href="#DejaVuSans-5f" x="966.349609"/>
      <use xlink:href="#DejaVuSans-6c" x="1016.349609"/>
      <use xlink:href="#DejaVuSans-61" x="1044.132812"/>
      <use xlink:href="#DejaVuSans-79" x="1105.412109"/>
      <use xlink:href="#DejaVuSans-65" x="1164.591797"/>
      <use xlink:href="#DejaVuSans-72" x="1226.115234"/>
      <use xlink:href="#DejaVuSans-73" x="1267.228516"/>
      <use xlink:href="#DejaVuSans-5f" x="1319.328125"/>
      <use xlink:href="#DejaVuSans-74" x="1369.328125"/>
      <use xlink:href="#DejaVuSans-6f" x="1408.537109"/>
      <use xlink:href="#DejaVuSans-5f" x="1469.71875"/>
      <use xlink:href="#DejaVuSans-63" x="1519.71875"/>
      <use xlink:href="#DejaVuSans-6f" x="1574.699219"/>
      <use xlink:href="#DejaVuSans-6d" x="1635.880859"/>
      <use xlink:href="#DejaVuSans-70" x="1733.292969"/>
      <use xlink:href="#DejaVuSans-75" x="1796.769531"/>
      <use xlink:href="#DejaVuSans-74" x="1860.148438"/>
      <use xlink:href="#DejaVuSans-65" x="1899.357422"/>
      <use xlink:href="#DejaVuSans-2b" x="1960.880859"/>
      <use xlink:href="#DejaVuSans-39" x="2044.669922"/>
      <use xlink:href="#DejaVuSans-32" x="2108.292969"/>
      <use xlink:href="#DejaVuSans-2e" x="2171.916016"/>
      <use xlink:href="#DejaVuSans-36" x="2203.703125"/>
      <use xlink:href="#DejaVuSans-33" x="2267.326172"/>
     </g>
    </g>
   </g>
  </g>
 </g>
 <defs>
  <clipPath id="p3d972410dc">
   <rect x="60.32" y="26.88" width="490.250909" height="363.16"/>
  </clipPath>
 </defs>
</svg>
